<svg width="48px" height="48px" viewBox="0 0 48 50" fill="none" xmlns="http://www.w3.org/2000/svg">
<g clip-path="url(#clip0_82_37)">
<path d="M42.8469 29.077H5.03491V40.422C5.03491 45.366 13.5219 49.375 23.9959 49.375C34.4699 49.375 42.9489 45.365 42.9489 40.422C42.9489 40.422 42.9319 29.152 42.8469 29.077Z" fill="#0078D7"/>
<path d="M42.9319 27.06L42.9569 36.982C42.9569 41.926 34.4699 45.935 23.9959 45.935C13.5219 45.935 5.03589 41.918 5.03589 36.982V27.061H42.9319V27.06Z" fill="#50E6FF"/>
<path d="M42.8469 16.819H5.03491V28.164C5.03491 33.108 13.5219 37.117 23.9959 37.117C34.4699 37.117 42.9559 33.108 42.9559 28.164C42.9479 28.164 42.9319 16.894 42.8469 16.819Z" fill="#0078D7"/>
<path d="M42.9479 9.79501H5.03491V19.195C5.03491 24.139 13.5219 28.148 23.9949 28.148C34.4699 28.148 42.9479 24.139 42.9479 19.195V9.79501Z" fill="#50E6FF"/>
<path d="M23.9959 19.12C34.4679 19.12 42.9559 15.16 42.9559 10.276C42.9559 5.39201 34.4679 1.43201 23.9959 1.43201C13.5239 1.43201 5.03491 5.39201 5.03491 10.276C5.03491 15.16 13.5239 19.119 23.9949 19.119L23.9959 19.12Z" fill="#0078D7"/>
</g>
<defs>
<clipPath id="clip0_82_37">
<rect width="48" height="49" fill="white" transform="translate(0 0.5)"/>
</clipPath>
</defs>
</svg>
