<svg width="60" height="60" viewBox="0 0 60 60" fill="none" xmlns="http://www.w3.org/2000/svg">
<path d="M21.3918 56.0499C23.7166 56.9856 26.2387 57.5408 28.887 57.6333C32.471 57.7585 35.8792 57.0175 38.9261 55.6099C35.2724 54.1744 31.9634 52.0751 29.1392 49.4651C27.3086 52.3961 24.601 54.7113 21.3918 56.0499Z" fill="#FF9100"/>
<path d="M29.139 49.466C22.6924 43.5038 18.7816 34.8743 19.1121 25.4092C19.1229 25.1019 19.1391 24.7947 19.1581 24.4876C17.9806 24.1823 16.7733 24.0065 15.5577 23.9635C13.83 23.9024 12.1034 24.11 10.4394 24.5788C8.7184 27.5933 7.68 31.0521 7.5506 34.7569C7.2167 44.318 13.0028 52.6723 21.3915 56.0508C24.6008 54.7121 27.3083 52.3998 29.139 49.466Z" fill="#FFC400"/>
<path d="M29.1391 49.4657C30.6379 47.0671 31.5466 44.2551 31.6524 41.2254C31.9307 33.2559 26.5732 26.4003 19.1582 24.4873C19.1392 24.7944 19.123 25.1016 19.1122 25.4089C18.7817 34.874 22.6925 43.5035 29.1391 49.4657Z" fill="#FF9100"/>
<path d="M30.823 2.08582C26.5999 5.46912 23.2651 9.93021 21.2474 15.0693C20.0923 18.0129 19.3664 21.1748 19.1545 24.4893C26.5695 26.4023 31.9271 33.2579 31.6488 41.2273C31.543 44.257 30.6316 47.0663 29.1354 49.4677C31.9594 52.0804 35.2685 54.177 38.9222 55.6124C46.2559 52.2224 51.4592 44.9278 51.7605 36.2997C51.9557 30.7096 49.8079 25.7273 46.773 21.5219C43.5679 17.0742 30.823 2.08582 30.823 2.08582Z" fill="#DD2C00"/>
</svg>
