<?xml version="1.0" encoding="UTF-8"?>
<svg version="1.1" xmlns="http://www.w3.org/2000/svg" width="360" height="267">
<path d="M0 0 C10.82510332 12.10320138 14.67614857 26.22290597 14.12109375 42.19140625 C12.60334991 56.96539379 4.80832998 69.08201676 -6.2890625 78.5859375 C-19.07082975 87.96976972 -32.45470151 89.68025341 -47.81640625 88.44140625 C-58.55194999 86.52122769 -68.54043838 81.67473831 -75.81640625 73.44140625 C-76.44289062 72.80589844 -77.069375 72.17039062 -77.71484375 71.515625 C-87.83620939 60.92393568 -91.22414732 48.8879959 -91.11254883 34.5234375 C-90.71819943 20.28026929 -85.08539295 9.11744975 -75.81640625 -1.55859375 C-53.22885915 -21.17409518 -21.86605973 -21.21977225 0 0 Z M-57.81640625 10.44140625 C-58.39390625 10.85390625 -58.97140625 11.26640625 -59.56640625 11.69140625 C-62.99497333 16.49140016 -63.19081433 22.2822981 -62.3515625 27.90625 C-59.6394504 40.75413869 -54.67991595 55.46158551 -45.81640625 65.44140625 C-40.44026783 68.8531864 -35.01920445 69.19384522 -28.81640625 68.44140625 C-25.99012012 67.64694133 -23.51057407 66.63881417 -20.81640625 65.44140625 C-20.81640625 64.78140625 -20.81640625 64.12140625 -20.81640625 63.44140625 C-20.13578125 63.25578125 -19.45515625 63.07015625 -18.75390625 62.87890625 C-13.7053603 60.40834121 -9.84947129 56.5524522 -7.37890625 51.50390625 C-7.10046875 50.48296875 -7.10046875 50.48296875 -6.81640625 49.44140625 C-6.15640625 49.44140625 -5.49640625 49.44140625 -4.81640625 49.44140625 C-1.19658303 39.66943713 0.85221695 31.17368554 -3.31640625 21.25390625 C-8.5144693 12.19442494 -17.17199569 7.57988064 -26.81640625 4.44140625 C-37.81617765 1.81284596 -48.78417148 3.39185716 -57.81640625 10.44140625 Z " fill="#7115B8" transform="translate(218.81640625,46.55859375)"/>
<path d="M0 0 C11.16132021 10.67779731 16.83074913 24.36588545 17.265625 39.63671875 C16.89722095 53.22516033 12.41554624 65.01881131 3.1640625 75.0703125 C2.65488281 75.68132812 2.14570313 76.29234375 1.62109375 76.921875 C-6.97081479 86.5532984 -19.27455296 90.86079102 -31.8359375 92.0703125 C-47.19716372 92.78530776 -60.15855359 88.15702713 -71.8359375 78.0703125 C-74.41248301 75.55720466 -76.67478172 72.94618122 -78.8359375 70.0703125 C-79.52623047 69.16732422 -79.52623047 69.16732422 -80.23046875 68.24609375 C-88.67246766 56.08043368 -89.70117024 40.46227091 -87.2109375 26.1953125 C-83.01774343 11.41791822 -72.99544606 -0.26068722 -59.8359375 -7.9296875 C-39.60332215 -16.66592317 -17.16426843 -14.01040992 0 0 Z M-53.8359375 12.0703125 C-58.95888493 19.23198391 -59.36468211 25.41608647 -58.21240234 33.95117188 C-57.46580934 38.1537836 -56.29191593 42.22977944 -55.0859375 46.3203125 C-54.84609131 47.14724609 -54.60624512 47.97417969 -54.35913086 48.82617188 C-51.58381643 57.79160913 -47.85549307 65.74928037 -39.8359375 71.0703125 C-32.04013179 73.6689144 -25.17103847 71.15303737 -17.8359375 68.0703125 C-15.17499786 66.57465012 -13.16380546 65.08074392 -10.8359375 63.0703125 C-10.8359375 62.4103125 -10.8359375 61.7503125 -10.8359375 61.0703125 C-9.8459375 60.7403125 -8.8559375 60.4103125 -7.8359375 60.0703125 C-7.8359375 59.4103125 -7.8359375 58.7503125 -7.8359375 58.0703125 C-7.1759375 58.0703125 -6.5159375 58.0703125 -5.8359375 58.0703125 C-0.16839808 50.2774458 3.14372998 42.75456642 2.1640625 33.0703125 C0.69421229 24.64414151 -4.21264175 18.72890481 -10.8203125 13.5 C-22.94149858 5.4030477 -41.77117836 2.1346285 -53.8359375 12.0703125 Z " fill="#7215B9" transform="translate(161.8359375,139.9296875)"/>
<path d="M0 0 C10.18009606 8.78703028 18.47640901 19.27653694 20.41015625 32.9921875 C21.38271158 50.64986646 19.10686252 63.83456737 7.4375 77.7421875 C-3.18427551 89.53051639 -15.99068747 94.17809104 -31.578125 95.015625 C-46.64095459 95.21357895 -58.63934638 89.46180526 -69.37109375 79.2734375 C-80.69498694 67.6305614 -83.91226096 55.33395678 -83.97705078 39.51098633 C-83.80293796 27.61947162 -79.88045719 18.40338802 -72.58984375 8.9921875 C-71.84089844 8.01507813 -71.09195313 7.03796875 -70.3203125 6.03125 C-67.58017253 2.77880519 -64.49101603 0.54828538 -60.90234375 -1.6953125 C-60.2880249 -2.08396484 -59.67370605 -2.47261719 -59.04077148 -2.87304688 C-54.10220621 -5.89631666 -49.29951362 -7.90304817 -43.58984375 -9.0078125 C-42.43484375 -9.2346875 -41.27984375 -9.4615625 -40.08984375 -9.6953125 C-25.8389876 -10.96771037 -11.56779586 -8.96809513 0 0 Z M-49.58984375 15.9921875 C-57.11116605 28.88588287 -52.54798496 44.39833178 -49.21484375 58.0546875 C-47.30096257 64.51280964 -44.87938212 70.04616859 -38.83984375 73.4921875 C-31.13759782 76.71103654 -24.15699149 75.07990373 -16.51953125 72.3203125 C-6.41580008 67.73995437 1.29729278 59.22161716 5.41015625 48.9921875 C7.82458061 40.70266385 5.94638704 34.58088715 2.41015625 26.9921875 C2.14847656 26.32703125 1.88679688 25.661875 1.6171875 24.9765625 C-2.60794999 18.03038177 -12.28602129 12.99208602 -19.8046875 10.64453125 C-30.1289106 8.22637521 -41.72255994 7.64809861 -49.58984375 15.9921875 Z " fill="#7015B8" transform="translate(269.58984375,137.0078125)"/>
<path d="M0 0 C0.33 0 0.66 0 1 0 C1.02688151 1.64574566 1.04634123 3.29161413 1.0625 4.9375 C1.07410156 5.85402344 1.08570313 6.77054688 1.09765625 7.71484375 C1 10 1 10 0 11 C-0.6256395 19.52305612 -0.79954261 27.18979731 3.125 34.984375 C4 37 4 37 4 41 C4.66 41 5.32 41 6 41 C7.4606285 43.64738916 8 44.89448334 8 48 C9.32 48.66 10.64 49.32 12 50 C12 51.65 12 53.3 12 55 C15.465 55.495 15.465 55.495 19 56 C19 56.66 19 57.32 19 58 C20.65 58.33 22.3 58.66 24 59 C24.33 60.32 24.66 61.64 25 63 C26.485 62.505 26.485 62.505 28 62 C29.5 63.375 29.5 63.375 31 65 C31 65.66 31 66.32 31 67 C36.35944276 68.58786518 41.89574601 68.22485307 47.4375 68.25 C49.13616211 68.2809375 49.13616211 68.2809375 50.86914062 68.3125 C52.50979492 68.32023437 52.50979492 68.32023437 54.18359375 68.328125 C55.67717407 68.34214355 55.67717407 68.34214355 57.20092773 68.35644531 C60.45819433 67.94165166 62.28621519 66.79663138 65 65 C67.67578125 64.26953125 67.67578125 64.26953125 70.3125 63.8125 C71.19550781 63.65394531 72.07851563 63.49539062 72.98828125 63.33203125 C73.65214844 63.22246094 74.31601562 63.11289063 75 63 C75.33 62.01 75.66 61.02 76 60 C76.99 59.67 77.98 59.34 79 59 C81.36506843 56.99878825 81.9893322 56.03200339 83 53 C85.58072903 50.67734388 86.45176068 50 90 50 C90.19335938 49.36191406 90.38671875 48.72382813 90.5859375 48.06640625 C90.84632813 47.24011719 91.10671875 46.41382813 91.375 45.5625 C91.63023437 44.73878906 91.88546875 43.91507813 92.1484375 43.06640625 C93 41 93 41 95 40 C96 43 96 43 94.8125 45.453125 C87.27840133 57.07901864 77.76007003 66.41233688 64.0625 70.4375 C62.71575737 70.67246361 61.35906965 70.85217137 60 71 C58.91460937 71.14179688 57.82921875 71.28359375 56.7109375 71.4296875 C41.7205243 72.95045406 28.32706167 70.32065887 16.3125 60.890625 C6.72376087 52.61462992 -0.82416822 42.77492147 -3 30 C-3.23591912 26.39794391 -3.23084102 22.79657274 -3.25 19.1875 C-3.270625 18.22779297 -3.29125 17.26808594 -3.3125 16.27929688 C-3.3460929 10.12759726 -2.52679039 5.6187839 0 0 Z " fill="#491C80" transform="translate(189,160)"/>
<path d="M0 0 C0.33 0 0.66 0 1 0 C1 2.64 1 5.28 1 8 C0.34 8 -0.32 8 -1 8 C-1 13.61 -1 19.22 -1 25 C-0.34 25 0.32 25 1 25 C1.12375 25.96679688 1.2475 26.93359375 1.375 27.9296875 C2.70771699 36.34246352 4.22008062 41.55035307 10.35546875 47.8515625 C12.33676789 50.43995805 12.34062453 51.81711505 12 55 C13.32 55 14.64 55 16 55 C16 55.66 16 56.32 16 57 C19.465 57.495 19.465 57.495 23 58 C23.66 59.65 24.32 61.3 25 63 C25.78375 62.938125 26.5675 62.87625 27.375 62.8125 C28.674375 62.9053125 28.674375 62.9053125 30 63 C30.66 63.99 31.32 64.98 32 66 C43.54943484 69.84981161 57.23063738 67.94018103 69 66 C69.495 64.515 69.495 64.515 70 63 C71.32 63 72.64 63 74 63 C74.33 62.01 74.66 61.02 75 60 C78.50825987 56.59197613 81.14562001 55.45157023 86 55 C86.103125 54.360625 86.20625 53.72125 86.3125 53.0625 C86.539375 52.381875 86.76625 51.70125 87 51 C87.99 50.67 88.98 50.34 90 50 C90 49.34 90 48.68 90 48 C91.485 48.495 91.485 48.495 93 49 C87.81035044 55.07861731 82.76551412 60.67607263 76 65 C75.4225 65.37769531 74.845 65.75539063 74.25 66.14453125 C62.26846784 73.03907669 46.61158096 73.4910994 33.48828125 70.08984375 C22.31121713 66.18779178 13.10320089 59.45229095 6 50 C5.53980469 49.39800781 5.07960938 48.79601562 4.60546875 48.17578125 C-3.64635594 36.2841789 -4.50194329 21.85808545 -2.57421875 7.921875 C-1.98477966 5.13216328 -1.27839846 2.55679692 0 0 Z " fill="#4A1D83" transform="translate(77,160)"/>
<path d="M0 0 C2.6074028 -0.38344159 4.38063153 -0.374232 6.66796875 1.0078125 C8.3125 2.3125 8.3125 2.3125 11 5 C11 5.99 11 6.98 11 8 C12.32 8.33 13.64 8.66 15 9 C15 10.32 15 11.64 15 13 C15.99 13.33 16.98 13.66 18 14 C18.02719556 16.37507855 18.04693247 18.74983964 18.0625 21.125 C18.07087891 21.79015625 18.07925781 22.4553125 18.08789062 23.140625 C18.10782292 27.20681354 17.78890161 31.0120092 17 35 C17.66 35.33 18.32 35.66 19 36 C18.3125 38.375 18.3125 38.375 17 41 C16.21625 41.2475 15.4325 41.495 14.625 41.75 C10.87365799 43.53635334 10.33028499 46.14274233 8.89453125 49.90625 C8 52 8 52 6 54 C5.236875 54.28875 4.47375 54.5775 3.6875 54.875 C0.62251225 56.15801813 -1.44406749 57.89135568 -4 60 C-8.63187662 63.61129363 -12.7006972 63.360239 -18.3125 63.1875 C-19.56643555 63.16719727 -19.56643555 63.16719727 -20.84570312 63.14648438 C-22.89741498 63.11131217 -24.94879275 63.05751048 -27 63 C-27 62.34 -27 61.68 -27 61 C-28.32 60.67 -29.64 60.34 -31 60 C-31 59.01 -31 58.02 -31 57 C-32.32 56.67 -33.64 56.34 -35 56 C-35 53.69 -35 51.38 -35 49 C-36.65 49 -38.3 49 -40 49 C-40 48.01 -40 47.02 -40 46 C-40.66 46 -41.32 46 -42 46 C-42.48062124 43.31275296 -42.95953496 40.62521967 -43.4375 37.9375 C-43.57220703 37.18533203 -43.70691406 36.43316406 -43.84570312 35.65820312 C-44.6521177 31.11474542 -45.37461944 26.57195693 -46 22 C-45.34 22 -44.68 22 -44 22 C-43.78085938 22.78761719 -43.56171875 23.57523438 -43.3359375 24.38671875 C-40.09232482 35.52839644 -36.01908918 45.71002902 -29 55 C-29 55.66 -29 56.32 -29 57 C-22.4751845 59.26950104 -15.72899892 60.26944644 -9.0625 58 C-8.0415625 57.505 -8.0415625 57.505 -7 57 C-6.01 57 -5.02 57 -4 57 C-4 56.34 -4 55.68 -4 55 C-2.4609375 53.7734375 -2.4609375 53.7734375 -0.375 52.375 C3.54757808 49.56521003 6.09917262 46.52804978 8.7734375 42.5390625 C9.17820313 42.03117187 9.58296875 41.52328125 10 41 C10.66 41 11.32 41 12 41 C12.185625 39.7315625 12.185625 39.7315625 12.375 38.4375 C13 35 13 35 14.125 31.8125 C15.77350554 24.62972587 14.99406714 17.33483996 11.37890625 10.8515625 C8.76180194 7.33737711 5.3991371 4.72225266 2 2 C1.34 1.34 0.68 0.68 0 0 Z " fill="#57218E" transform="translate(202,55)"/>
<path d="M0 0 C1.65 0 3.3 0 5 0 C5.33 1.32 5.66 2.64 6 4 C6.99 4 7.98 4 9 4 C10.5 5.375 10.5 5.375 12 7 C12.99 7.66 13.98 8.32 15 9 C15 10.32 15 11.64 15 13 C15.94875 13.226875 16.8975 13.45375 17.875 13.6875 C21 15 21 15 22.4375 17.3125 C23.05231071 20.24992893 22.81846842 22.13536054 22 25 C22.66 25 23.32 25 24 25 C24.495 28.465 24.495 28.465 25 32 C25.66 32 26.32 32 27 32 C26.67 34.97 26.34 37.94 26 41 C24.68 39.68 23.36 38.36 22 37 C20.515 37.495 20.515 37.495 19 38 C19.04125 39.258125 19.0825 40.51625 19.125 41.8125 C19.2390374 45.29064073 19.05925681 45.91111478 17 49 C16.505 39.1 16.505 39.1 16 29 C15.34 28.67 14.68 28.34 14 28 C13.855625 27.34 13.71125 26.68 13.5625 26 C13.376875 25.34 13.19125 24.68 13 24 C12.01 23.67 11.02 23.34 10 23 C9.33333333 21.66666667 8.66666667 20.33333333 8 19 C5.79147359 16.94378576 4.41513995 16.08100292 1.4375 15.5 C-1.40557196 14.91680575 -2.08032796 14.08660004 -4 12 C-6.09989652 10.82425289 -6.09989652 10.82425289 -8 10 C-7.67 9.34 -7.34 8.68 -7 8 C-5.68 8 -4.36 8 -3 8 C-2.67 8.66 -2.34 9.32 -2 10 C1.465 9.505 1.465 9.505 5 9 C5.4125 10.11375 5.825 11.2275 6.25 12.375 C7.35546516 14.99320695 7.74880787 15.83493089 10.1875 17.4375 C10.785625 17.623125 11.38375 17.80875 12 18 C12.94607807 15.25038489 12.94607807 15.25038489 13 12 C10.48598399 8.85747998 8.8303089 7.27676963 5 6 C4.67 4.35 4.34 2.7 4 1 C2.68 0.67 1.36 0.34 0 0 Z " fill="#9220C4" transform="translate(203,40)"/>
<path d="M0 0 C2 0 2 0 4.60546875 1.88671875 C7.94292272 6.22595336 7.56970885 9.50608362 7.3125 14.8125 C7.28994141 15.69615234 7.26738281 16.57980469 7.24414062 17.49023438 C7.18547428 19.6608891 7.09579979 21.8306669 7 24 C7.99 24.33 8.98 24.66 10 25 C9.67 25.66 9.34 26.32 9 27 C8.01 27 7.02 27 6 27 C5.67 28.32 5.34 29.64 5 31 C4.34 31 3.68 31 3 31 C2.896875 31.928125 2.79375 32.85625 2.6875 33.8125 C1.99468505 37.02464205 1.6120831 38.11930017 -1 40 C-1.66 40 -2.32 40 -3 40 C-3.0928125 41.1446875 -3.0928125 41.1446875 -3.1875 42.3125 C-4 45 -4 45 -5.9375 46.5625 C-10.21840671 48.57190519 -14.56720455 50.35353312 -19 52 C-19.90492188 52.37253906 -20.80984375 52.74507812 -21.7421875 53.12890625 C-26.00966215 54.26996962 -29.80669206 54.1308136 -34.1875 53.875 C-35.39696289 53.84019531 -35.39696289 53.84019531 -36.63085938 53.8046875 C-42.4550219 53.49484012 -42.4550219 53.49484012 -44.953125 51.2265625 C-45.99997743 49.000048 -46.85620109 46.85702036 -47.5625 44.5 C-48.25189735 42.22537822 -48.87976043 40.21276593 -50.05078125 38.140625 C-51.36134013 35.18512596 -51.43205788 32.46570207 -51.625 29.25 C-51.69976562 28.07953125 -51.77453125 26.9090625 -51.8515625 25.703125 C-51.90054688 24.81109375 -51.94953125 23.9190625 -52 23 C-50.01332124 25.98001814 -49.21115594 28.2854775 -48.1875 31.6875 C-45.72011611 39.24500546 -42.82009638 45.51309449 -36 50 C-27.72051989 52.7598267 -19.59783899 49.79335504 -12.03515625 46.01953125 C-8.62470081 43.89342035 -6.43980273 41.13688922 -4 38 C-3.34 38 -2.68 38 -2 38 C3.19371934 27.78244934 7.20629827 19.52212443 3.625 8.1875 C2.60095999 5.34811634 1.38563707 2.6809065 0 0 Z " fill="#5B2983" transform="translate(158,160)"/>
<path d="M0 0 C0.66 0.33 1.32 0.66 2 1 C1.96519531 1.74121094 1.93039063 2.48242188 1.89453125 3.24609375 C1.52573465 17.59403785 3.22207436 36.19520345 12 48 C12 48.66 12 49.32 12 50 C21.45737455 53.83407076 28.47518442 53.77611375 38.0625 50.33984375 C44.38663832 47.45529662 49.17733661 42.90878238 54 38 C54.99 38.495 54.99 38.495 56 39 C54.38405168 41.04119788 52.7143618 43.04072937 51 45 C50.34 45 49.68 45 49 45 C48.79375 45.5775 48.5875 46.155 48.375 46.75 C45.63388428 51.23546208 40.47827424 53.75851474 35.6015625 55.453125 C28.33333732 56.98098014 18.91603848 57.70892367 12.25 54 C8.4486463 51.02575403 6.65766314 47.45246717 5 43 C4.70222656 42.26265625 4.40445313 41.5253125 4.09765625 40.765625 C2.18495081 35.65332473 1.70310743 31.44303053 2 26 C1.34 26 0.68 26 0 26 C-1.31567432 17.28365762 -1.54659574 8.69960102 0 0 Z " fill="#5C278B" transform="translate(215,158)"/>
<path d="M0 0 C6.46607249 5.60024512 8.28675481 16.82429395 9 25 C9.42484183 39.09845486 5.65746783 51.44788366 -3.38671875 62.36328125 C-5 64 -5 64 -8 66 C-7.67 64.02 -7.34 62.04 -7 60 C-6.01 60 -5.02 60 -4 60 C-2.11871233 56.44825862 -0.9525989 52.85578554 0.21875 49.0234375 C1 47 1 47 3 45 C2.34 44.67 1.68 44.34 1 44 C0.505 42.515 0.505 42.515 0 41 C0.66 41 1.32 41 2 41 C1.95875 39.989375 1.9175 38.97875 1.875 37.9375 C2.0035491 33.88820335 2.821561 30.86266117 4 27 C4.72114188 23.67690026 5.36807907 20.34111388 6 17 C5.34 17 4.68 17 4 17 C3.71125 16.05125 3.4225 15.1025 3.125 14.125 C2.23174891 10.94788422 2.23174891 10.94788422 0 9 C0.66 9 1.32 9 2 9 C1.67 8.2575 1.34 7.515 1 6.75 C0 4 0 4 0 0 Z " fill="#7D25BD" transform="translate(224,55)"/>
<path d="M0 0 C0.99 1.485 0.99 1.485 2 3 C-5.63731523 15.83718943 -15.09812451 26.07680632 -29.9375 30.4375 C-31.28424263 30.67246361 -32.64093035 30.85217137 -34 31 C-35.08539063 31.14179688 -36.17078125 31.28359375 -37.2890625 31.4296875 C-51.16934807 32.83783241 -63.14589855 30.61521278 -75 23 C-74.67 22.34 -74.34 21.68 -74 21 C-72.515 21.99 -72.515 21.99 -71 23 C-68.35982365 23.81779841 -65.69729409 24.3809489 -63 25 C-63 25.66 -63 26.32 -63 27 C-57.64055724 28.58786518 -52.10425399 28.22485307 -46.5625 28.25 C-44.86383789 28.2809375 -44.86383789 28.2809375 -43.13085938 28.3125 C-41.49020508 28.32023437 -41.49020508 28.32023437 -39.81640625 28.328125 C-38.82068604 28.3374707 -37.82496582 28.34681641 -36.79907227 28.35644531 C-33.54180567 27.94165166 -31.71378481 26.79663138 -29 25 C-26.32421875 24.26953125 -26.32421875 24.26953125 -23.6875 23.8125 C-22.80449219 23.65394531 -21.92148437 23.49539062 -21.01171875 23.33203125 C-20.01591797 23.16767578 -20.01591797 23.16767578 -19 23 C-18.505 21.515 -18.505 21.515 -18 20 C-17.01 19.67 -16.02 19.34 -15 19 C-12.63493157 16.99878825 -12.0106678 16.03200339 -11 13 C-8.41927097 10.67734388 -7.54823932 10 -4 10 C-3.79503906 9.36191406 -3.59007812 8.72382813 -3.37890625 8.06640625 C-3.10949219 7.24011719 -2.84007812 6.41382813 -2.5625 5.5625 C-2.29566406 4.73878906 -2.02882813 3.91507813 -1.75390625 3.06640625 C-1 1 -1 1 0 0 Z " fill="#4B227A" transform="translate(283,200)"/>
<path d="M0 0 C0 0.66 0 1.32 0 2 C1.65 2.33 3.3 2.66 5 3 C5 3.66 5 4.32 5 5 C5.66 5 6.32 5 7 5 C7.66 4.34 8.32 3.68 9 3 C9 4.65 9 6.3 9 8 C9.99 8 10.98 8 12 8 C12 8.66 12 9.32 12 10 C12.99 10.33 13.98 10.66 15 11 C15 11.99 15 12.98 15 14 C17.64 14.66 20.28 15.32 23 16 C23.33 14.68 23.66 13.36 24 12 C26.475 12.495 26.475 12.495 29 13 C28.95875 13.86625 28.9175 14.7325 28.875 15.625 C29.00457721 19.12358468 29.76019656 21.74551597 31 25 C30.34 25 29.68 25 29 25 C28.505 24.01 28.505 24.01 28 23 C26.35 23.66 24.7 24.32 23 25 C23.33 25.99 23.66 26.98 24 28 C24.0685495 29.89470816 24.08480372 31.7916834 24.0625 33.6875 C24.05347656 34.68136719 24.04445313 35.67523438 24.03515625 36.69921875 C24.02355469 37.45847656 24.01195312 38.21773437 24 39 C23.01 39.495 23.01 39.495 22 40 C21.67 34.06 21.34 28.12 21 22 C19.68 21.67 18.36 21.34 17 21 C16.67 19.02 16.34 17.04 16 15 C15.01 15 14.02 15 13 15 C13 14.01 13 13.02 13 12 C11.68 12 10.36 12 9 12 C8.67 10.35 8.34 8.7 8 7 C7.05125 6.855625 6.1025 6.71125 5.125 6.5625 C2 6 2 6 0 5 C0 4.34 0 3.68 0 3 C-1.65 2.67 -3.3 2.34 -5 2 C-2 0 -2 0 0 0 Z " fill="#981ECE" transform="translate(256,144)"/>
<path d="M0 0 C1.6875 3.0625 1.6875 3.0625 3 6 C-3.75 4.125 -3.75 4.125 -6 3 C-8.04055005 2.92934383 -10.08334257 2.91578024 -12.125 2.9375 C-13.22070312 2.94652344 -14.31640625 2.95554688 -15.4453125 2.96484375 C-16.70988281 2.98224609 -16.70988281 2.98224609 -18 3 C-18 2.01 -18 1.02 -18 0 C-20.54250021 0.11474466 -23.08347338 0.2414697 -25.625 0.375 C-26.33785156 0.4059375 -27.05070312 0.436875 -27.78515625 0.46875 C-32.20096314 0.71182194 -35.7964231 1.53363596 -40 3 C-43.375 2.625 -43.375 2.625 -46 2 C-32.4583525 -7.027765 -14.63667773 -4.87889258 0 0 Z " fill="#7826B1" transform="translate(148,131)"/>
<path d="M0 0 C0.96099609 0.01353516 1.92199219 0.02707031 2.91210938 0.04101562 C5.25451752 0.07597694 7.59569156 0.12503896 9.9375 0.1875 C9.9375 0.8475 9.9375 1.5075 9.9375 2.1875 C8.70386719 2.13529297 8.70386719 2.13529297 7.4453125 2.08203125 C-0.01926676 1.90101951 -6.0774059 2.5811216 -13.0625 5.1875 C-14.0525 5.47625 -15.0425 5.765 -16.0625 6.0625 C-18.86083984 7.63656616 -19.16481504 9.14918166 -20.0625 12.1875 C-20.41570312 13.10015625 -20.76890625 14.0128125 -21.1328125 14.953125 C-22.15326462 18.50326936 -22.1116882 21.02704114 -21.75 24.6875 C-21.65074219 25.7703125 -21.55148438 26.853125 -21.44921875 27.96875 C-21.18776822 30.14486347 -20.85474947 32.31337383 -20.45703125 34.46875 C-20.0625 37.1875 -20.0625 37.1875 -21.0625 39.1875 C-21.7225 39.1875 -22.3825 39.1875 -23.0625 39.1875 C-23.3925 37.5375 -23.7225 35.8875 -24.0625 34.1875 C-24.3925 34.1875 -24.7225 34.1875 -25.0625 34.1875 C-25.11705124 31.52055052 -25.15643392 28.85474502 -25.1875 26.1875 C-25.20425781 25.44371094 -25.22101563 24.69992188 -25.23828125 23.93359375 C-25.28397163 18.67919994 -24.63866758 14.21360082 -23.0625 9.1875 C-22.4025 8.5275 -21.7425 7.8675 -21.0625 7.1875 C-20.93609131 6.52210205 -20.80968262 5.8567041 -20.67944336 5.17114258 C-20.0625 3.1875 -20.0625 3.1875 -18.38500977 2.1472168 C-12.15683985 0.16543184 -6.50775838 -0.17661975 0 0 Z " fill="#6625A4" transform="translate(126.0625,144.8125)"/>
<path d="M0 0 C11.72468966 1.87342438 20.8763074 10.05301138 27.734375 19.3515625 C31 24.39676966 31 24.39676966 31 27 C29.02 26.67 27.04 26.34 25 26 C24.34 23.69 23.68 21.38 23 19 C22.34 19 21.68 19 21 19 C20.34 17.68 19.68 16.36 19 15 C18.236875 15 17.47375 15 16.6875 15 C14.45833333 15 12.22916667 15 10 15 C10 12.36 10 9.72 10 7 C9.01 7 8.02 7 7 7 C7 6.34 7 5.68 7 5 C6.401875 4.731875 5.80375 4.46375 5.1875 4.1875 C3.02775192 3.01506533 1.64209744 1.80630718 0 0 Z " fill="#8F26B9" transform="translate(254,130)"/>
<path d="M0 0 C1.02565063 0.31698853 1.02565063 0.31698853 2.07202148 0.64038086 C3.45350895 0.75867998 4.83862825 0.83919559 6.22436523 0.88647461 C7.38935547 0.93578125 7.38935547 0.93578125 8.57788086 0.98608398 C10.19493102 1.04712925 11.81212661 1.10444003 13.42944336 1.15795898 C17.71611638 1.34618903 21.15791708 1.6872823 25.07202148 3.64038086 C25.07202148 4.30038086 25.07202148 4.96038086 25.07202148 5.64038086 C27.71202148 6.30038086 30.35202148 6.96038086 33.07202148 7.64038086 C33.56702148 10.11538086 33.56702148 10.11538086 34.07202148 12.64038086 C33.00274414 12.02549805 33.00274414 12.02549805 31.91186523 11.39819336 C21.55740385 5.57293783 10.58349594 1.60871149 -1.36547852 4.76538086 C-7.22091861 6.82041512 -10.42673289 10.66492656 -13.92797852 15.64038086 C-15.07567078 12.19730407 -14.92797852 9.23943851 -14.92797852 5.64038086 C-11.63252406 3.44341122 -8.71500673 2.72238892 -4.92797852 1.64038086 C-1.92797852 -0.35961914 -1.92797852 -0.35961914 0 0 Z " fill="#7629B2" transform="translate(230.927978515625,143.359619140625)"/>
<path d="M0 0 C0.66 0.33 1.32 0.66 2 1 C0.07045173 5.14852879 -2.12740101 8.45712791 -5 12 C-5.33 12.99 -5.66 13.98 -6 15 C-6.99 15 -7.98 15 -9 15 C-9.06058594 15.98742188 -9.12117187 16.97484375 -9.18359375 17.9921875 C-9.26738281 19.27351563 -9.35117188 20.55484375 -9.4375 21.875 C-9.51871094 23.15117188 -9.59992188 24.42734375 -9.68359375 25.7421875 C-10 29 -10 29 -11 31 C-11.06073491 32.64473758 -11.06024844 34.29197038 -11.02734375 35.9375 C-11.01509766 36.91460937 -11.00285156 37.89171875 -10.99023438 38.8984375 C-10.95507693 40.96621592 -10.91601402 43.03393162 -10.87304688 45.1015625 C-10.86208984 46.07867187 -10.85113281 47.05578125 -10.83984375 48.0625 C-10.82300537 48.96097656 -10.80616699 49.85945313 -10.78881836 50.78515625 C-11 53 -11 53 -13 55 C-16.74208164 41.90271426 -16.64745286 26.72260791 -10.16015625 14.546875 C-7.13375924 9.40812697 -3.79134854 4.60559789 0 0 Z " fill="#552385" transform="translate(143,45)"/>
<path d="M0 0 C0.99 0.33 1.98 0.66 3 1 C3.33 1.99 3.66 2.98 4 4 C4.66 4.33 5.32 4.66 6 5 C6.103125 5.969375 6.20625 6.93875 6.3125 7.9375 C6.539375 8.948125 6.76625 9.95875 7 11 C9.35346742 12.55849551 9.35346742 12.55849551 12 13 C12.66 12.67 13.32 12.34 14 12 C14 14.31 14 16.62 14 19 C14.928125 19.04125 15.85625 19.0825 16.8125 19.125 C17.864375 19.41375 18.91625 19.7025 20 20 C21 22 22 24 23 26 C26.08961458 26.97474816 26.08961458 26.97474816 29 27 C29 28.32 29 29.64 29 31 C18.02749288 28.40124831 10.16631301 19.97945785 4 11 C0 3.72237197 0 3.72237197 0 0 Z " fill="#551497" transform="translate(131,100)"/>
<path d="M0 0 C2.6074028 -0.38344159 4.38063153 -0.374232 6.66796875 1.0078125 C8.3125 2.3125 8.3125 2.3125 11 5 C11 5.99 11 6.98 11 8 C12.32 8.33 13.64 8.66 15 9 C15 10.32 15 11.64 15 13 C15.99 13.33 16.98 13.66 18 14 C18.02719556 16.37507855 18.04693247 18.74983964 18.0625 21.125 C18.07087891 21.79015625 18.07925781 22.4553125 18.08789062 23.140625 C18.10782292 27.20681354 17.78890161 31.0120092 17 35 C17.66 35.33 18.32 35.66 19 36 C18.25 38.4375 18.25 38.4375 17 41 C14.875 41.8125 14.875 41.8125 13 42 C13.99 41.505 13.99 41.505 15 41 C14.814375 39.906875 14.62875 38.81375 14.4375 37.6875 C13.97407333 34.1839944 14.16223365 31.12311552 14.625 27.625 C15.31158843 20.91684551 14.33279269 15.32681519 10.4140625 9.73828125 C7.28935539 6.04730626 3.91994232 2.85086714 0 0 Z " fill="#7635A0" transform="translate(202,55)"/>
<path d="M0 0 C3.34156689 2.70507796 4.58156362 6.01486922 6 10 C6.1875 13.4375 6.1875 13.4375 6 16 C5.34 15.01 4.68 14.02 4 13 C0.61998852 16.5269685 0.10701414 20.28314583 0 25 C0.20154403 28.02316042 0.54927327 31.00440078 1 34 C0.01 33.67 -0.98 33.34 -2 33 C-2.0093457 32.44014404 -2.01869141 31.88028809 -2.02832031 31.3034668 C-2.08204507 28.76391854 -2.16568187 26.22620889 -2.25 23.6875 C-2.26417969 22.80642578 -2.27835938 21.92535156 -2.29296875 21.01757812 C-2.30014929 15.96572734 -2.30014929 15.96572734 -5.046875 12.01953125 C-6.01367188 11.51486328 -6.01367188 11.51486328 -7 11 C-7 10.34 -7 9.68 -7 9 C-7.66 9 -8.32 9 -9 9 C-8.67 8.34 -8.34 7.68 -8 7 C-5.525 8.98 -5.525 8.98 -3 11 C-0.87953208 7.46588679 -0.46800711 4.05606165 0 0 Z " fill="#981BC0" transform="translate(167,151)"/>
<path d="M0 0 C0.99 0.33 1.98 0.66 3 1 C-2.14654916 7.02813397 -7.18201764 12.83946755 -14 17 C-14.81186768 17.50756836 -14.81186768 17.50756836 -15.64013672 18.02539062 C-21.35721728 21.27899005 -26.50852183 21.65150861 -33 21.75 C-33.96550781 21.77964844 -34.93101562 21.80929688 -35.92578125 21.83984375 C-38.28393466 21.90988791 -40.64113746 21.96290292 -43 22 C-43 21.67 -43 21.34 -43 21 C-32.11 19.515 -32.11 19.515 -21 18 C-20.67 17.01 -20.34 16.02 -20 15 C-18.68 15 -17.36 15 -16 15 C-15.67 14.01 -15.34 13.02 -15 12 C-11.49174013 8.59197613 -8.85437999 7.45157023 -4 7 C-3.896875 6.360625 -3.79375 5.72125 -3.6875 5.0625 C-3.460625 4.381875 -3.23375 3.70125 -3 3 C-2.01 2.67 -1.02 2.34 0 2 C0 1.34 0 0.68 0 0 Z " fill="#59218E" transform="translate(167,208)"/>
<path d="M0 0 C6.56146682 9.84220023 6.08445129 22.6311032 4.61328125 33.984375 C3.81205964 37.80459966 2.60590249 41.44407307 1 45 C0.67 45 0.34 45 0 45 C-0.33 43.02 -0.66 41.04 -1 39 C-0.34 39 0.32 39 1 39 C0.67 37.68 0.34 36.36 0 35 C0.66 35 1.32 35 2 35 C1.67 25.76 1.34 16.52 1 7 C0.34 6.67 -0.32 6.34 -1 6 C-0.67 4.02 -0.34 2.04 0 0 Z " fill="#6E2989" transform="translate(285,157)"/>
<path d="M0 0 C-4.36029379 4.98931978 -10.91351627 6.6078885 -17.34082031 7.22460938 C-27.16920569 7.75215398 -36.70474265 7.5816588 -46 4 C-42.30469926 2.8165339 -38.86198734 2.93247202 -35.00390625 3.0078125 C-33.62696049 3.02532818 -32.25000689 3.04223652 -30.87304688 3.05859375 C-28.71584167 3.08953374 -26.55903261 3.12507445 -24.40209961 3.17138672 C-22.31098584 3.21388224 -20.22033518 3.23720543 -18.12890625 3.2578125 C-16.25827515 3.29092529 -16.25827515 3.29092529 -14.34985352 3.32470703 C-8.77776463 2.78459492 -5.897443 -0.41144951 0 0 Z " fill="#4A2676" transform="translate(206,128)"/>
<path d="M0 0 C1.32 0 2.64 0 4 0 C4 0.99 4 1.98 4 3 C4.99 3 5.98 3 7 3 C7.37125 4.175625 7.37125 4.175625 7.75 5.375 C9.18650005 8.3916501 10.04720831 8.71565565 13 10 C13.0543251 13.02107902 13.09382927 16.04116528 13.125 19.0625 C13.14175781 19.91005859 13.15851563 20.75761719 13.17578125 21.63085938 C13.21596135 26.83418201 12.69745815 31.07469821 11 36 C10.01 36 9.02 36 8 36 C7.67 37.32 7.34 38.64 7 40 C6.34 39.34 5.68 38.68 5 38 C5.27714844 37.46890625 5.55429687 36.9378125 5.83984375 36.390625 C6.20207031 35.68421875 6.56429688 34.9778125 6.9375 34.25 C7.29714844 33.55390625 7.65679687 32.8578125 8.02734375 32.140625 C10.48460493 26.7326767 11.01020394 21.05816283 9.140625 15.3984375 C8.44397383 13.68709875 7.72282967 11.9854374 6.97265625 10.296875 C6 8 6 8 5.49609375 5.7734375 C5.33238281 5.18820313 5.16867187 4.60296875 5 4 C3.03327085 2.8499169 3.03327085 2.8499169 1 2 C0.67 1.34 0.34 0.68 0 0 Z " fill="#6F2B90" transform="translate(265,156)"/>
<path d="M0 0 C2 2 2 2 2 6 C1.01 6.66 0.02 7.32 -1 8 C-2.15164111 10.11072896 -2.15164111 10.11072896 -3.0625 12.5 C-4.18913756 15.28718368 -4.85226455 16.85226455 -7 19 C-8.65249487 19.70105843 -10.32367583 20.35800351 -12 21 C-14.34258781 22.05375922 -16.67854535 23.12087635 -19.01171875 24.1953125 C-21 25 -21 25 -23 25 C-23 25.66 -23 26.32 -23 27 C-26.63 27 -30.26 27 -34 27 C-34 26.34 -34 25.68 -34 25 C-33.40832031 24.95101562 -32.81664062 24.90203125 -32.20703125 24.8515625 C-27.76362115 24.43114197 -24.11636075 23.81604151 -20 22 C-19.01 22 -18.02 22 -17 22 C-17 21.34 -17 20.68 -17 20 C-15.4609375 18.7734375 -15.4609375 18.7734375 -13.375 17.375 C-9.45242192 14.56521003 -6.90082738 11.52804978 -4.2265625 7.5390625 C-3.82179687 7.03117187 -3.41703125 6.52328125 -3 6 C-2.34 6 -1.68 6 -1 6 C-0.67 4.02 -0.34 2.04 0 0 Z " fill="#612290" transform="translate(215,90)"/>
<path d="M0 0 C-0.98828125 1.45703125 -0.98828125 1.45703125 -3 3 C-5.79251583 3.37674518 -8.38779201 3.60191941 -11.1875 3.6875 C-11.93708984 3.72166016 -12.68667969 3.75582031 -13.45898438 3.79101562 C-15.30546838 3.87334294 -17.15270994 3.93835281 -19 4 C-19.87840996 7.09720845 -19.99435406 8.90645403 -19 12 C-22.65456815 12.75241109 -26.31733897 13.40049704 -30 14 C-29.75 11.625 -29.75 11.625 -29 9 C-27.6846659 8.29848848 -26.34882408 7.63474075 -25 7 C-24.54625 6.13375 -24.0925 5.2675 -23.625 4.375 C-23.08875 3.59125 -22.5525 2.8075 -22 2 C-19.1875 1.8125 -19.1875 1.8125 -16 2 C-15.0925 1.67 -14.185 1.34 -13.25 1 C-8.80379995 -0.36806155 -4.61537966 -0.16418347 0 0 Z " fill="#7E16C0" transform="translate(124,131)"/>
<path d="M0 0 C4.66312344 3.19012982 6.78555365 6.54594914 9.1875 11.5 C9.53482178 12.21341553 9.88214355 12.92683105 10.23999023 13.66186523 C15.45465013 24.82041187 15.21280552 35.00305889 14 47 C13.67 47 13.34 47 13 47 C13 42.05 13 37.1 13 32 C12.34 32 11.68 32 11 32 C11 29.36 11 26.72 11 24 C10.34 24 9.68 24 9 24 C8.87625 22.5459375 8.87625 22.5459375 8.75 21.0625 C7.80926986 14.43707204 4.47295349 8.62287707 1 3 C0.67 2.01 0.34 1.02 0 0 Z " fill="#7E2C9C" transform="translate(164,144)"/>
<path d="M0 0 C1.12317627 0.05692017 1.12317627 0.05692017 2.26904297 0.11499023 C6.89635042 0.47745745 10.45243223 1.3769865 14.4375 3.9375 C14.9325 5.4225 14.9325 5.4225 15.4375 6.9375 C14.77363281 6.73253906 14.10976562 6.52757812 13.42578125 6.31640625 C12.54277344 6.04699219 11.65976563 5.77757812 10.75 5.5 C9.87988281 5.23316406 9.00976562 4.96632813 8.11328125 4.69140625 C-1.89946542 1.87029661 -12.09099545 1.83210487 -21.41796875 6.95703125 C-22.83866053 7.89363546 -24.20516772 8.91122437 -25.5625 9.9375 C-26.5525 10.5975 -27.5425 11.2575 -28.5625 11.9375 C-28.5625 10.6175 -28.5625 9.2975 -28.5625 7.9375 C-27.2425 7.6075 -25.9225 7.2775 -24.5625 6.9375 C-24.5625 5.9475 -24.5625 4.9575 -24.5625 3.9375 C-16.22260821 1.07143099 -8.8269868 -0.49525251 0 0 Z " fill="#7A3190" transform="translate(186.5625,48.0625)"/>
<path d="M0 0 C7.53380526 -0.10936169 14.94000972 0.04841343 22.44140625 0.78125 C25.23625543 1.05679028 25.23625543 1.05679028 29 1 C30.125 5.75 30.125 5.75 29 8 C29.8971875 8.433125 29.8971875 8.433125 30.8125 8.875 C33 10 33 10 36 12 C35.67 12.66 35.34 13.32 35 14 C34.34 14 33.68 14 33 14 C32.278125 13.2575 31.55625 12.515 30.8125 11.75 C25.31584503 6.37549292 20.62628041 4.53517757 13 4 C13 3.34 13 2.68 13 2 C8.71 2 4.42 2 0 2 C0 1.34 0 0.68 0 0 Z " fill="#961AC8" transform="translate(123,143)"/>
<path d="M0 0 C0.66 0.99 1.32 1.98 2 3 C-3.50698564 12.25642267 -9.63265589 21.67276072 -20 26 C-20.99 25.67 -21.98 25.34 -23 25 C-22.67 24.34 -22.34 23.68 -22 23 C-21.01 23 -20.02 23 -19 23 C-18.67 22.01 -18.34 21.02 -18 20 C-17.01 19.67 -16.02 19.34 -15 19 C-12.63493157 16.99878825 -12.0106678 16.03200339 -11 13 C-8.41927097 10.67734388 -7.54823932 10 -4 10 C-3.79503906 9.36191406 -3.59007812 8.72382813 -3.37890625 8.06640625 C-3.10949219 7.24011719 -2.84007812 6.41382813 -2.5625 5.5625 C-2.29566406 4.73878906 -2.02882813 3.91507813 -1.75390625 3.06640625 C-1 1 -1 1 0 0 Z " fill="#59247A" transform="translate(283,200)"/>
<path d="M0 0 C0.33 0 0.66 0 1 0 C1.02688151 1.64574566 1.04634123 3.29161413 1.0625 4.9375 C1.07410156 5.85402344 1.08570313 6.77054688 1.09765625 7.71484375 C1 10 1 10 0 11 C-0.09981214 13.6773138 -0.13879875 16.32304175 -0.125 19 C-0.12886719 19.75023437 -0.13273438 20.50046875 -0.13671875 21.2734375 C-0.47675541 24.93606117 -0.47675541 24.93606117 1 28 C1.07226502 29.85287502 1.0838122 31.70833878 1.0625 33.5625 C1.05347656 34.57441406 1.04445312 35.58632812 1.03515625 36.62890625 C1.02355469 37.41136719 1.01195312 38.19382813 1 39 C0.34 38.67 -0.32 38.34 -1 38 C-3.081587 31.64490752 -3.33514934 25.64984586 -3.3125 19 C-3.32861328 18.05382812 -3.34472656 17.10765625 -3.36132812 16.1328125 C-3.36553997 10.05090874 -2.48421314 5.55834497 0 0 Z " fill="#4E257E" transform="translate(189,160)"/>
<path d="M0 0 C-3.72145015 1.24048338 -4.47418006 0.43662419 -8 -1 C-10.79774989 -1.36051198 -10.79774989 -1.36051198 -13.73828125 -1.4140625 C-14.80498047 -1.45273437 -15.87167969 -1.49140625 -16.97070312 -1.53125 C-18.07349609 -1.5621875 -19.17628906 -1.593125 -20.3125 -1.625 C-21.43462891 -1.66367187 -22.55675781 -1.70234375 -23.71289062 -1.7421875 C-26.47509852 -1.83622011 -29.237304 -1.92187341 -32 -2 C-32 -1.34 -32 -0.68 -32 0 C-37.24882694 3.17692157 -42.01488629 3.65697965 -48 4 C-35.86048726 -5.59677696 -13.44848698 -8.96565799 0 0 Z " fill="#63297C" transform="translate(200,35)"/>
<path d="M0 0 C0 3.5747073 -0.55352838 4.46916729 -3 7 C-5.6875 7.75 -5.6875 7.75 -8 8 C-8.33 8.99 -8.66 9.98 -9 11 C-9.99 11.33 -10.98 11.66 -12 12 C-14.37528239 15.46395349 -16.15904698 19.23042953 -18 23 C-18.66 23 -19.32 23 -20 23 C-20 24.32 -20 25.64 -20 27 C-20.99 27 -21.98 27 -23 27 C-21.7835659 18.23543635 -14.62650776 10.53144927 -8 5 C-5.40355743 3.19894653 -2.75228196 1.5512862 0 0 Z " fill="#5C2D79" transform="translate(101,133)"/>
<path d="M0 0 C0.66 0 1.32 0 2 0 C1.56414747 12.63972328 -3.95488799 23.32220218 -13 32 C-14.125 28.25 -14.125 28.25 -13 26 C-12.01 26 -11.02 26 -10 26 C-8.09944543 22.42007609 -6.94639176 18.79481178 -5.78125 14.92578125 C-5 13 -5 13 -3 12 C-2.08514427 9.19521805 -2.08514427 9.19521805 -1.375 5.9375 C-1.11460937 4.83277344 -0.85421875 3.72804688 -0.5859375 2.58984375 C-0.39257812 1.73519531 -0.19921875 0.88054687 0 0 Z " fill="#642D93" transform="translate(230,89)"/>
<path d="M0 0 C10.52804143 2.6994978 17.23816476 9.91137439 24 18 C23.67 18.66 23.34 19.32 23 20 C20.5625 19.25 20.5625 19.25 18 18 C17.65657551 16.66923011 17.32380126 15.33568021 17 14 C15.35857037 12.9590934 13.69287785 11.95495674 12 11 C12 10.34 12 9.68 12 9 C11.01 9 10.02 9 9 9 C8.67 8.01 8.34 7.02 8 6 C6.35 5.67 4.7 5.34 3 5 C3 4.34 3 3.68 3 3 C2.01 3 1.02 3 0 3 C0 2.01 0 1.02 0 0 Z " fill="#733290" transform="translate(200,35)"/>
<path d="M0 0 C0.33 0 0.66 0 1 0 C1 2.64 1 5.28 1 8 C0.34 8 -0.32 8 -1 8 C-0.93941406 8.72590332 -0.87882812 9.45180664 -0.81640625 10.19970703 C-0.54173317 13.50793297 -0.27083202 16.81645748 0 20.125 C0.14308594 21.83816406 0.14308594 21.83816406 0.2890625 23.5859375 C0.37929687 24.69453125 0.46953125 25.803125 0.5625 26.9453125 C0.64628906 27.96125488 0.73007813 28.97719727 0.81640625 30.02392578 C1.0014882 33.0241239 1.03134371 35.99492147 1 39 C-2.95383474 33.06924789 -3.3322862 27.02830209 -3.25 20.125 C-3.24540771 19.33287109 -3.24081543 18.54074219 -3.23608398 17.72460938 C-3.14063579 11.58052692 -2.80032984 5.60065969 0 0 Z " fill="#4E2A7B" transform="translate(77,160)"/>
<path d="M0 0 C0 0.66 0 1.32 0 2 C1.65 2.33 3.3 2.66 5 3 C5 3.66 5 4.32 5 5 C5.66 5 6.32 5 7 5 C7.66 4.34 8.32 3.68 9 3 C9 4.65 9 6.3 9 8 C9.99 8 10.98 8 12 8 C12 8.66 12 9.32 12 10 C12.99 10.33 13.98 10.66 15 11 C15 11.99 15 12.98 15 14 C16.32 14.66 17.64 15.32 19 16 C18.67 17.65 18.34 19.3 18 21 C16 18 16 18 16 15 C15.01 15 14.02 15 13 15 C13 14.01 13 13.02 13 12 C11.68 12 10.36 12 9 12 C8.67 10.35 8.34 8.7 8 7 C7.05125 6.855625 6.1025 6.71125 5.125 6.5625 C2 6 2 6 0 5 C0 4.34 0 3.68 0 3 C-1.65 2.67 -3.3 2.34 -5 2 C-2 0 -2 0 0 0 Z " fill="#8E1FC2" transform="translate(256,144)"/>
<path d="M0 0 C1.98667876 2.98001814 2.78884406 5.2854775 3.8125 8.6875 C6.38497028 16.57640886 9.88772787 22.41163691 16 28 C14.35 28 12.7 28 11 28 C10.71125 27.360625 10.4225 26.72125 10.125 26.0625 C9.17176549 23.84793921 9.17176549 23.84793921 7 23 C7 22.34 7 21.68 7 21 C6.34 21 5.68 21 5 21 C0.80588317 14.10000134 0.24387556 7.99911842 0 0 Z " fill="#51257A" transform="translate(106,183)"/>
<path d="M0 0 C6.42452323 5.56425944 8.32744936 16.86345598 9 25 C8.54296875 27.31640625 8.54296875 27.31640625 8 29 C7.67 29 7.34 29 7 29 C6.67 25.04 6.34 21.08 6 17 C5.34 17 4.68 17 4 17 C3.566875 15.576875 3.566875 15.576875 3.125 14.125 C2.23174891 10.94788422 2.23174891 10.94788422 0 9 C0.66 9 1.32 9 2 9 C1.67 8.2575 1.34 7.515 1 6.75 C0 4 0 4 0 0 Z " fill="#722B96" transform="translate(224,55)"/>
<path d="M0 0 C2 0 2 0 4.60546875 1.88671875 C7.94292272 6.22595336 7.56970885 9.50608362 7.3125 14.8125 C7.28994141 15.69615234 7.26738281 16.57980469 7.24414062 17.49023438 C7.18547428 19.6608891 7.09579979 21.8306669 7 24 C7.99 24.33 8.98 24.66 10 25 C9.67 25.66 9.34 26.32 9 27 C8.01 27 7.02 27 6 27 C6 27.99 6 28.98 6 30 C5.34 30 4.68 30 4 30 C4.2475 28.2984375 4.2475 28.2984375 4.5 26.5625 C5.69363083 16.5921719 4.64558949 8.98820575 0 0 Z " fill="#672D84" transform="translate(158,160)"/>
<path d="M0 0 C0.639375 0.33 1.27875 0.66 1.9375 1 C1.9375 1.66 1.9375 2.32 1.9375 3 C4.5775 3.66 7.2175 4.32 9.9375 5 C10.2675 6.65 10.5975 8.3 10.9375 10 C9.86822266 9.38511719 9.86822266 9.38511719 8.77734375 8.7578125 C0.5075454 4.10535529 -6.64686553 1.81132451 -16.0625 1 C-10.91553264 -1.94112421 -5.56430575 -1.81691616 0 0 Z " fill="#642B86" transform="translate(254.0625,146)"/>
<path d="M0 0 C0.33 1.32 0.66 2.64 1 4 C0.2575 4.103125 -0.485 4.20625 -1.25 4.3125 C-4.01515472 4.78981722 -4.01515472 4.78981722 -5.78125 6.5 C-8.65860428 8.4452536 -10.80603198 8.50032782 -14.25 8.6875 C-15.32765625 8.75324219 -16.4053125 8.81898438 -17.515625 8.88671875 C-18.74539062 8.94279297 -18.74539062 8.94279297 -20 9 C-16.88255181 5.70609248 -15.43304687 4.78809722 -11 4 C-8.63039231 3.00854956 -6.31080305 1.93669858 -3.98828125 0.83984375 C-2 0 -2 0 0 0 Z " fill="#821EC3" transform="translate(232,128)"/>
<path d="M0 0 C1.68756133 0.96432076 3.3497306 1.9731657 5 3 C6.423125 3.7425 6.423125 3.7425 7.875 4.5 C10 7 10 7 10.0546875 9.38671875 C9.84730895 11.29300615 9.60499718 13.19574391 9.33203125 15.09375 C8.86020697 19.22360016 9.39512024 22.90025939 10 27 C9.01 26.67 8.02 26.34 7 26 C6.9906543 25.44014404 6.98130859 24.88028809 6.97167969 24.3034668 C6.91795493 21.76391854 6.83431813 19.22620889 6.75 16.6875 C6.73582031 15.80642578 6.72164062 14.92535156 6.70703125 14.01757812 C6.69985071 8.96572734 6.69985071 8.96572734 3.953125 5.01953125 C3.30859375 4.68308594 2.6640625 4.34664062 2 4 C2 3.34 2 2.68 2 2 C1.34 2 0.68 2 0 2 C0 1.34 0 0.68 0 0 Z " fill="#8926BB" transform="translate(158,158)"/>
<path d="M0 0 C7.27962946 1.37792986 11.69365931 5.27905612 17.1875 10.0390625 C18.1775 10.6990625 19.1675 11.3590625 20.1875 12.0390625 C19.5275 12.0390625 18.8675 12.0390625 18.1875 12.0390625 C17.8575 12.6990625 17.5275 13.3590625 17.1875 14.0390625 C16.775 13.65234375 16.3625 13.265625 15.9375 12.8671875 C9.98012956 7.49491595 3.87318855 4.34476907 -3.8125 2.0390625 C-1.8125 0.0390625 -1.8125 0.0390625 0 0 Z " fill="#652C7F" transform="translate(139.8125,145.9609375)"/>
<path d="M0 0 C-1.21816406 0.06058594 -2.43632812 0.12117187 -3.69140625 0.18359375 C-5.31511277 0.26806403 -6.93881022 0.35270872 -8.5625 0.4375 C-9.36236328 0.47681641 -10.16222656 0.51613281 -10.98632812 0.55664062 C-15.71371506 0.80748156 -20.32476901 1.25321814 -25 2 C-25.33 2.99 -25.66 3.98 -26 5 C-28.97 4.505 -28.97 4.505 -32 4 C-24.02200626 -1.31866249 -8.45796014 -5.63864009 0 0 Z " fill="#5E2677" transform="translate(134,129)"/>
<path d="M0 0 C0.97453125 0.00902344 1.9490625 0.01804688 2.953125 0.02734375 C5.34400728 0.05078377 7.73437261 0.08359558 10.125 0.125 C10.125 0.785 10.125 1.445 10.125 2.125 C9.31417969 2.10179687 8.50335938 2.07859375 7.66796875 2.0546875 C-1.21639282 1.90988999 -9.28886848 2.92393626 -17.875 5.125 C-17.545 4.135 -17.215 3.145 -16.875 2.125 C-11.49205874 -0.53999715 -5.85514146 -0.10313935 0 0 Z " fill="#6A2B91" transform="translate(125.875,144.875)"/>
<path d="M0 0 C0.721875 0.495 1.44375 0.99 2.1875 1.5 C5.14848659 3.07919285 6.71253029 3.28178312 10 3 C10 3.66 10 4.32 10 5 C13.63 5 17.26 5 21 5 C21 4.34 21 3.68 21 3 C23.97 2.01 26.94 1.02 30 0 C25.9913413 4.0086587 23.30695186 6.1528539 17.57421875 6.29296875 C15.94505332 6.27318132 14.31601427 6.23762791 12.6875 6.1875 C11.85154297 6.17396484 11.01558594 6.16042969 10.15429688 6.14648438 C8.10258502 6.11131217 6.05120725 6.05751048 4 6 C4 5.34 4 4.68 4 4 C2.68 3.67 1.36 3.34 0 3 C0 2.01 0 1.02 0 0 Z " fill="#5F1EA2" transform="translate(171,112)"/>
<path d="M0 0 C0.33 0.66 0.66 1.32 1 2 C1.99 2.33 2.98 2.66 4 3 C4.33 3.99 4.66 4.98 5 6 C10.28 6.66 15.56 7.32 21 8 C21 8.66 21 9.32 21 10 C18.06030263 9.94006733 15.12572941 9.85309577 12.1875 9.75 C11.35412109 9.73582031 10.52074219 9.72164062 9.66210938 9.70703125 C3.50576746 9.4597886 3.50576746 9.4597886 0.9375 7.125 C-0.17643847 4.6000728 -0.22762571 2.73150853 0 0 Z " fill="#5C229D" transform="translate(112,204)"/>
<path d="M0 0 C-3.00574773 3.48033948 -6.19484088 4.85207525 -10.77075195 5.22705078 C-11.75003662 5.21657715 -12.72932129 5.20610352 -13.73828125 5.1953125 C-15.33833008 5.18564453 -15.33833008 5.18564453 -16.97070312 5.17578125 C-18.62489258 5.15064453 -18.62489258 5.15064453 -20.3125 5.125 C-21.43462891 5.11597656 -22.55675781 5.10695312 -23.71289062 5.09765625 C-26.47547909 5.07414486 -29.23762932 5.04128155 -32 5 C-32 4.67 -32 4.34 -32 4 C-31.08504761 3.97812622 -31.08504761 3.97812622 -30.15161133 3.95581055 C-27.37128936 3.88105225 -24.59213176 3.78448518 -21.8125 3.6875 C-20.85279297 3.66494141 -19.89308594 3.64238281 -18.90429688 3.61914062 C-11.87059096 3.35142171 -6.78066313 -0.47306952 0 0 Z " fill="#551F9E" transform="translate(206,128)"/>
<path d="M0 0 C4.57777778 0.76296296 4.57777778 0.76296296 6.78125 2 C9.63310046 3.28534105 12.13662364 3.42195372 15.25 3.625 C16.32765625 3.69976562 17.4053125 3.77453125 18.515625 3.8515625 C19.33546875 3.90054688 20.1553125 3.94953125 21 4 C21 4.33 21 4.66 21 5 C14.4 5.33 7.8 5.66 1 6 C0.67 4.02 0.34 2.04 0 0 Z " fill="#6111AA" transform="translate(223,210)"/>
<path d="M0 0 C-2.30948559 2.30948559 -3.63094958 2.57160823 -6.75 3.375 C-11.23031946 4.64862617 -14.30104933 6.20323242 -18 9 C-18.99 9.66 -19.98 10.32 -21 11 C-21 9.68 -21 8.36 -21 7 C-19.68 6.67 -18.36 6.34 -17 6 C-17 5.01 -17 4.02 -17 3 C-5.47835991 -0.44419134 -5.47835991 -0.44419134 0 0 Z " fill="#64387D" transform="translate(179,49)"/>
<path d="M0 0 C0.75 1.6875 0.75 1.6875 1 4 C-0.75 6.375 -0.75 6.375 -3 9 C-3.7734375 10.60875 -3.7734375 10.60875 -4.5625 12.25 C-6 15 -6 15 -9 16 C-8.43864007 12.08434122 -7.31225965 9.55237392 -5.0625 6.3125 C-4.53785156 5.54550781 -4.01320312 4.77851563 -3.47265625 3.98828125 C-2 2 -2 2 0 0 Z " fill="#5C257C" transform="translate(199,144)"/>
<path d="M0 0 C8.07029553 -0.11547323 15.97667603 0.09958689 24 1 C24 2.32 24 3.64 24 5 C18.555 4.505 18.555 4.505 13 4 C13 3.34 13 2.68 13 2 C8.71 2 4.42 2 0 2 C0 1.34 0 0.68 0 0 Z " fill="#8726BA" transform="translate(123,143)"/>
<path d="M0 0 C0.99 0.33 1.98 0.66 3 1 C3.33 1.99 3.66 2.98 4 4 C4.66 4.33 5.32 4.66 6 5 C6.74609375 6.70703125 6.74609375 6.70703125 7.4375 8.8125 C8.55589021 11.99078239 9.75477781 14.43403178 12 17 C11.67 17.66 11.34 18.32 11 19 C6.09299538 13.94137445 0 7.52474738 0 0 Z " fill="#4A257F" transform="translate(131,100)"/>
<path d="M0 0 C2.27145346 0.03300659 4.54240126 0.10240005 6.8125 0.1875 C8.70935547 0.23970703 8.70935547 0.23970703 10.64453125 0.29296875 C14 1 14 1 15.94921875 3.55078125 C16.29597656 4.35902344 16.64273438 5.16726562 17 6 C10.25 4.125 10.25 4.125 8 3 C6.29297265 2.93003986 4.58331997 2.91559846 2.875 2.9375 C1.96492187 2.94652344 1.05484375 2.95554688 0.1171875 2.96484375 C-0.93082031 2.98224609 -0.93082031 2.98224609 -2 3 C-1.34 2.01 -0.68 1.02 0 0 Z " fill="#9126C3" transform="translate(134,131)"/>
<path d="M0 0 C-4.94283007 2.26271777 -9.82409354 4.3178304 -15 6 C-15.33 6.33 -15.66 6.66 -16 7 C-17.66617115 7.04063832 -19.33388095 7.042721 -21 7 C-15.08513391 1.80208737 -7.90046182 -2.19549676 0 0 Z " fill="#6B2E80" transform="translate(230,129)"/>
<path d="M0 0 C2 2 2 2 2.07519531 4.01538086 C1.99366211 4.82370361 1.91212891 5.63202637 1.828125 6.46484375 C1.74046875 7.34720703 1.6528125 8.22957031 1.5625 9.13867188 C1.459375 10.06228516 1.35625 10.98589844 1.25 11.9375 C1.16234375 12.85724609 1.0746875 13.77699219 0.984375 14.72460938 C0.26140422 21.60789367 0.26140422 21.60789367 -2 25 C-2.3690205 8.29157175 -2.3690205 8.29157175 0 0 Z " fill="#411C66" transform="translate(130,66)"/>
<path d="M0 0 C0.33 0 0.66 0 1 0 C1.22134176 2.12368444 1.42670007 4.24904024 1.625 6.375 C1.74101563 7.55835938 1.85703125 8.74171875 1.9765625 9.9609375 C1.98429687 10.96382812 1.99203125 11.96671875 2 13 C1.34 13.66 0.68 14.32 0 15 C-0.46162427 17.43252661 -0.46162427 17.43252661 -0.625 20.125 C-0.73714844 21.49011719 -0.73714844 21.49011719 -0.8515625 22.8828125 C-0.90054688 23.58148438 -0.94953125 24.28015625 -1 25 C-1.33 25 -1.66 25 -2 25 C-2 19.39 -2 13.78 -2 8 C-1.34 8 -0.68 8 0 8 C0 5.36 0 2.72 0 0 Z " fill="#5818A9" transform="translate(78,160)"/>
<path d="M0 0 C3.27742098 3.10026309 5.93104837 5.97098894 8 10 C8 10.66 8 11.32 8 12 C5.125 11.8125 5.125 11.8125 2 11 C-0.24095934 7.43483742 -0.19206739 4.12944888 0 0 Z " fill="#81269C" transform="translate(277,145)"/>
<path d="M0 0 C1.89575251 -0.02721176 3.79161979 -0.04649136 5.6875 -0.0625 C6.74324219 -0.07410156 7.79898438 -0.08570313 8.88671875 -0.09765625 C11.72410262 -0.00865425 14.2438919 0.35060162 17 1 C17 1.99 17 2.98 17 4 C17.99 4 18.98 4 20 4 C19.67 4.99 19.34 5.98 19 7 C18.01 6.67 17.02 6.34 16 6 C15.67 5.34 15.34 4.68 15 4 C12.55753694 3.30541129 12.55753694 3.30541129 9.6875 2.875 C8.23923828 2.62363281 8.23923828 2.62363281 6.76171875 2.3671875 C3.80348575 1.91213577 3.80348575 1.91213577 0 2 C0 1.34 0 0.68 0 0 Z " fill="#8924C3" transform="translate(183,34)"/>
<path d="M0 0 C1.32 0 2.64 0 4 0 C4 0.99 4 1.98 4 3 C4.99 3 5.98 3 7 3 C7.37125 4.175625 7.37125 4.175625 7.75 5.375 C9.15389099 8.32317108 10.00675737 8.9024777 13 10 C13 10.66 13 11.32 13 12 C11 13.625 11 13.625 9 15 C8.32591692 13.73308493 7.66099503 12.46129251 7 11.1875 C6.443125 10.12595703 6.443125 10.12595703 5.875 9.04296875 C5 7 5 7 5 4 C4.360625 3.71125 3.72125 3.4225 3.0625 3.125 C1 2 1 2 0 0 Z " fill="#5B297D" transform="translate(265,156)"/>
<path d="M0 0 C2.31 0.33 4.62 0.66 7 1 C7 1.33 7 1.66 7 2 C6.00419922 2.23783203 6.00419922 2.23783203 4.98828125 2.48046875 C-2.65224186 4.4993515 -6.44172713 7.52245434 -11 14 C-12 11 -12 11 -11.0625 8.8125 C-10.711875 8.214375 -10.36125 7.61625 -10 7 C-9.34 7 -8.68 7 -8 7 C-7.67 5.68 -7.34 4.36 -7 3 C-3.535 2.505 -3.535 2.505 0 2 C0 1.34 0 0.68 0 0 Z " fill="#532872" transform="translate(228,145)"/>
<path d="M0 0 C0.33 0 0.66 0 1 0 C1.03738281 1.08796875 1.07476562 2.1759375 1.11328125 3.296875 C1.4880874 12.20385361 2.37092599 20.41830558 5 29 C3 28 3 28 2 25 C1.34 24.67 0.68 24.34 0 24 C0 16.08 0 8.16 0 0 Z " fill="#5413A6" transform="translate(131,76)"/>
<path d="M0 0 C-1.63072223 1.9591474 -2.55078834 2.9068329 -5.0847168 3.43237305 C-5.86500244 3.45855713 -6.64528809 3.48474121 -7.44921875 3.51171875 C-8.72055664 3.56489258 -8.72055664 3.56489258 -10.01757812 3.61914062 C-10.89865234 3.64169922 -11.77972656 3.66425781 -12.6875 3.6875 C-14.02651367 3.73874023 -14.02651367 3.73874023 -15.39257812 3.79101562 C-17.59492671 3.87345648 -19.79687938 3.94261551 -22 4 C-22 3.34 -22 2.68 -22 2 C-21.13375 2.04125 -20.2675 2.0825 -19.375 2.125 C-16.04163457 2.17431184 -16.04163457 2.17431184 -13.25 1 C-8.80379995 -0.36806155 -4.61537966 -0.16418347 0 0 Z " fill="#8523B9" transform="translate(124,131)"/>
<path d="M0 0 C8.77578475 -0.76681614 8.77578475 -0.76681614 11.77734375 1.11328125 C13.125 2.5 13.125 2.5 15 5 C14.443125 4.814375 13.88625 4.62875 13.3125 4.4375 C10.9491414 3.82533455 10.9491414 3.82533455 8.4375 4.625 C7.633125 4.74875 6.82875 4.8725 6 5 C4.375 3.5625 4.375 3.5625 3 2 C2.01 2 1.02 2 0 2 C0 1.34 0 0.68 0 0 Z " fill="#9320BF" transform="translate(244,130)"/>
<path d="M0 0 C2.6074028 -0.38344159 4.38063153 -0.374232 6.66796875 1.0078125 C8.3125 2.3125 8.3125 2.3125 11 5 C11 5.99 11 6.98 11 8 C11.99 8 12.98 8 14 8 C13.67 9.32 13.34 10.64 13 12 C12.34 11.29875 11.68 10.5975 11 9.875 C8.11536514 6.96542593 4.89763674 4.61789844 1.57421875 2.234375 C1.05472656 1.82703125 0.53523437 1.4196875 0 1 C0 0.67 0 0.34 0 0 Z " fill="#66337D" transform="translate(202,55)"/>
<path d="M0 0 C0.66 0.99 1.32 1.98 2 3 C1.2628641 4.29905098 0.50969444 5.58901122 -0.25 6.875 C-0.66765625 7.59429687 -1.0853125 8.31359375 -1.515625 9.0546875 C-3.18165877 11.2380686 -4.55825239 11.83772814 -7 13 C-7.99 14.485 -7.99 14.485 -9 16 C-9.66 16 -10.32 16 -11 16 C-11 15.01 -11 14.02 -11 13 C-8.46815512 10.64276511 -7.52809907 10 -4 10 C-3.79503906 9.36191406 -3.59007812 8.72382813 -3.37890625 8.06640625 C-3.10949219 7.24011719 -2.84007812 6.41382813 -2.5625 5.5625 C-2.16224609 4.32693359 -2.16224609 4.32693359 -1.75390625 3.06640625 C-1 1 -1 1 0 0 Z " fill="#6A2997" transform="translate(283,200)"/>
<path d="M0 0 C0 0.99 0 1.98 0 3 C-5.75 6 -5.75 6 -8 6 C-8 6.66 -8 7.32 -8 8 C-11.63 8 -15.26 8 -19 8 C-19 7.34 -19 6.68 -19 6 C-18.40832031 5.95101562 -17.81664062 5.90203125 -17.20703125 5.8515625 C-12.76362115 5.43114197 -9.11636075 4.81604151 -5 3 C-4.01 3 -3.02 3 -2 3 C-2 2.34 -2 1.68 -2 1 C-1.34 0.67 -0.68 0.34 0 0 Z " fill="#562774" transform="translate(200,109)"/>
<path d="M0 0 C4.96916636 0.51405169 9.29026351 1.23384882 14 3 C14 3.33 14 3.66 14 4 C7.07 3.505 7.07 3.505 0 3 C0 2.01 0 1.02 0 0 Z M-4 3 C-2.68 3.33 -1.36 3.66 0 4 C-1.98 4.99 -1.98 4.99 -4 6 C-4 5.01 -4 4.02 -4 3 Z " fill="#7B299F" transform="translate(134,128)"/>
<path d="M0 0 C0.556875 0.144375 1.11375 0.28875 1.6875 0.4375 C4.11384195 1.02769128 6.54906345 1.523429 9 2 C9.33 2.99 9.66 3.98 10 5 C12.97 5.495 12.97 5.495 16 6 C16 7.32 16 8.64 16 10 C9.8034553 8.53239731 4.93130534 4.88851943 0 1 C0 0.67 0 0.34 0 0 Z " fill="#4A2679" transform="translate(144,121)"/>
<path d="M0 0 C0.99 0.33 1.98 0.66 3 1 C1.58791833 2.60820412 0.17013964 4.21140708 -1.25 5.8125 C-2.03890625 6.70582031 -2.8278125 7.59914062 -3.640625 8.51953125 C-5.65879445 10.64128225 -7.59916705 12.34254423 -10 14 C-10.33 13.01 -10.66 12.02 -11 11 C-10.01 10.67 -9.02 10.34 -8 10 C-7.34 9.01 -6.68 8.02 -6 7 C-5.34 7 -4.68 7 -4 7 C-3.8453125 6.0409375 -3.8453125 6.0409375 -3.6875 5.0625 C-3.460625 4.381875 -3.23375 3.70125 -3 3 C-2.01 2.67 -1.02 2.34 0 2 C0 1.34 0 0.68 0 0 Z " fill="#562E77" transform="translate(167,208)"/>
<path d="M0 0 C0.103125 0.639375 0.20625 1.27875 0.3125 1.9375 C0.539375 2.618125 0.76625 3.29875 1 4 C1.99 4.33 2.98 4.66 4 5 C4 9.95 4 14.9 4 20 C3.67 20 3.34 20 3 20 C2.67 17.69 2.34 15.38 2 13 C1.67 13 1.34 13 1 13 C0.63779734 11.20994059 0.28547531 9.41787943 -0.0625 7.625 C-0.25972656 6.62726563 -0.45695313 5.62953125 -0.66015625 4.6015625 C-1 2 -1 2 0 0 Z " fill="#732797" transform="translate(216,64)"/>
<path d="M0 0 C0.7425 0.433125 0.7425 0.433125 1.5 0.875 C4.91752035 2.41288416 8.3506202 3.14847805 12 4 C12 4.66 12 5.32 12 6 C13.32 6.33 14.64 6.66 16 7 C15.67 7.66 15.34 8.32 15 9 C3.59778598 4.63837638 3.59778598 4.63837638 0 2 C0 1.34 0 0.68 0 0 Z " fill="#4A2A6E" transform="translate(208,221)"/>
<path d="M0 0 C0.66 0.33 1.32 0.66 2 1 C0.38405168 3.04119788 -1.2856382 5.04072937 -3 7 C-3.66 7 -4.32 7 -5 7 C-5.309375 7.639375 -5.61875 8.27875 -5.9375 8.9375 C-7 11 -7 11 -8 12 C-9.66617115 12.04063832 -11.33388095 12.042721 -13 12 C-9.7498074 8.61438271 -6.25061222 5.55850818 -2.70703125 2.48828125 C-1.7832102 1.68284459 -0.86665262 0.86665262 0 0 Z " fill="#642C78" transform="translate(269,196)"/>
<path d="M0 0 C5.08938811 1.59043379 8.87456643 4.7446951 13 8 C10 9 10 9 7.51953125 7.890625 C6.62621094 7.34921875 5.73289063 6.8078125 4.8125 6.25 C3.91144531 5.71890625 3.01039063 5.1878125 2.08203125 4.640625 C1.39496094 4.09921875 0.70789063 3.5578125 0 3 C0 2.01 0 1.02 0 0 Z " fill="#6A248B" transform="translate(148,132)"/>
<path d="M0 0 C0 0.66 0 1.32 0 2 C-3.90028225 4.60018816 -7.47434569 4.15085514 -12 4 C-8.31497587 -0.23095363 -5.4879376 -1.82931253 0 0 Z " fill="#55228C" transform="translate(261,225)"/>
<path d="M0 0 C1.75058957 3.23185766 3.00270036 6.58696545 4.26953125 10.02734375 C5.1367466 12.36928893 6.06009083 14.68637744 7 17 C6.34 17.66 5.68 18.32 5 19 C0.94853235 12.33468226 -0.15493203 7.90153355 0 0 Z " fill="#4E2870" transform="translate(219,189)"/>
<path d="M0 0 C0 1.32 0 2.64 0 4 C-3.3 4.33 -6.6 4.66 -10 5 C-10.33 4.01 -10.66 3.02 -11 2 C-9.54494642 1.47007308 -8.08581873 0.9513211 -6.625 0.4375 C-5.81289062 0.14746094 -5.00078125 -0.14257812 -4.1640625 -0.44140625 C-2 -1 -2 -1 0 0 Z " fill="#861FC5" transform="translate(168,36)"/>
<path d="M0 0 C0.66 0 1.32 0 2 0 C2 0.66 2 1.32 2 2 C2.7425 2.28875 3.485 2.5775 4.25 2.875 C6.56739797 3.82302644 8.77917115 4.84845911 11 6 C11 6.66 11 7.32 11 8 C6.24518354 7.42365861 3.02951788 5.44931479 -1 3 C-0.67 2.01 -0.34 1.02 0 0 Z " fill="#522587" transform="translate(225,206)"/>
<path d="M0 0 C1.98 0.495 1.98 0.495 4 1 C4.5625 2.9375 4.5625 2.9375 5 5 C4.67 5.33 4.34 5.66 4 6 C3.95936168 7.66617115 3.957279 9.33388095 4 11 C3.67 10.01 3.34 9.02 3 8 C1.68 8 0.36 8 -1 8 C-0.7525 7.13375 -0.7525 7.13375 -0.5 6.25 C0.14462031 3.73335631 0.14462031 3.73335631 0 0 Z " fill="#8D1EC2" transform="translate(281,191)"/>
<path d="M0 0 C1.13583456 3.71727674 0.66670026 5.47051709 -1 9 C-1.66 9 -2.32 9 -3 9 C-3 10.32 -3 11.64 -3 13 C-3.99 13 -4.98 13 -6 13 C-5.51675181 7.84535266 -2.81389239 4.18449681 0 0 Z " fill="#54286C" transform="translate(84,147)"/>
<path d="M0 0 C2.64 0.66 5.28 1.32 8 2 C8 2.66 8 3.32 8 4 C10.31 4 12.62 4 15 4 C15 4.33 15 4.66 15 5 C13.08364783 5.05423638 11.16685075 5.09289963 9.25 5.125 C7.64898437 5.15980469 7.64898437 5.15980469 6.015625 5.1953125 C3.07529894 5.00487687 1.47638122 4.52670104 -1 3 C-0.67 2.01 -0.34 1.02 0 0 Z " fill="#5516A5" transform="translate(221,224)"/>
<path d="M0 0 C4.90974115 3.22640133 7.89672543 7.5615329 10 13 C9.67 13.99 9.34 14.98 9 16 C1.18258427 3.54775281 1.18258427 3.54775281 0 0 Z " fill="#68327F" transform="translate(164,144)"/>
<path d="M0 0 C2 2 2 2 2 6 C1.01 6.66 0.02 7.32 -1 8 C-1.33 8.99 -1.66 9.98 -2 11 C-4.0625 12.6875 -4.0625 12.6875 -6 14 C-6.66 13.67 -7.32 13.34 -8 13 C-7.21654285 11.82780457 -6.42297164 10.66236332 -5.625 9.5 C-5.18414062 8.8503125 -4.74328125 8.200625 -4.2890625 7.53125 C-3.86367187 7.0259375 -3.43828125 6.520625 -3 6 C-2.34 6 -1.68 6 -1 6 C-0.67 4.02 -0.34 2.04 0 0 Z " fill="#63327A" transform="translate(215,90)"/>
<path d="M0 0 C1.65 0.33 3.3 0.66 5 1 C2.05710046 3.94289954 -0.11473658 3.97327103 -4.234375 4.09765625 C-5.39453125 4.08605469 -6.5546875 4.07445312 -7.75 4.0625 C-8.92046875 4.05347656 -10.0909375 4.04445312 -11.296875 4.03515625 C-12.18890625 4.02355469 -13.0809375 4.01195312 -14 4 C-14 3.34 -14 2.68 -14 2 C-9.38 2 -4.76 2 0 2 C0 1.34 0 0.68 0 0 Z " fill="#5C13B3" transform="translate(141,224)"/>
<path d="M0 0 C0.66 0 1.32 0 2 0 C0.43551329 5.6143991 -1.16395187 10.86810338 -4 16 C-4.66 14.68 -5.32 13.36 -6 12 C-5.566875 11.505 -5.13375 11.01 -4.6875 10.5 C-2.43618332 7.16471603 -1.328939 3.79696858 0 0 Z " fill="#5C227B" transform="translate(175,192)"/>
<path d="M0 0 C0.66 0.99 1.32 1.98 2 3 C1.34 3 0.68 3 0 3 C-0.061875 3.9075 -0.12375 4.815 -0.1875 5.75 C-1.18446044 9.73784176 -2.64888166 10.76592111 -6 13 C-6.66 12.67 -7.32 12.34 -8 12 C-7.67 11.34 -7.34 10.68 -7 10 C-6.34 10 -5.68 10 -5 10 C-4.731875 9.46375 -4.46375 8.9275 -4.1875 8.375 C-2.79166667 5.58333333 -1.39583333 2.79166667 0 0 Z " fill="#5E297A" transform="translate(161,188)"/>
<path d="M0 0 C3.7602985 0.58107632 6.53035032 1.65199496 9.8125 3.5625 C10.60269531 4.01753906 11.39289063 4.47257813 12.20703125 4.94140625 C12.79871094 5.29074219 13.39039063 5.64007813 14 6 C11 7 11 7 7.5625 5.8125 C4.30710329 4.15624553 2.35734265 2.73451747 0 0 Z " fill="#6C3084" transform="translate(254,130)"/>
<path d="M0 0 C1.65 0 3.3 0 5 0 C5.0825 0.61875 5.165 1.2375 5.25 1.875 C5.81258459 4.18437567 5.81258459 4.18437567 8.0625 5.25 C8.701875 5.4975 9.34125 5.745 10 6 C9.67 7.65 9.34 9.3 9 11 C7 8 7 8 7 5 C6.01 5 5.02 5 4 5 C4 4.01 4 3.02 4 2 C2.68 2 1.36 2 0 2 C0 1.34 0 0.68 0 0 Z " fill="#8D25B6" transform="translate(265,154)"/>
<path d="M0 0 C0.99 0.33 1.98 0.66 3 1 C3.99 0.67 4.98 0.34 6 0 C6.33 0.66 6.66 1.32 7 2 C6.21625 2.226875 5.4325 2.45375 4.625 2.6875 C1.78125 3.78125 1.78125 3.78125 0.6875 6.625 C0.3471875 7.800625 0.3471875 7.800625 0 9 C-1.125 7.3125 -1.125 7.3125 -2 5 C-1.125 2.25 -1.125 2.25 0 0 Z " fill="#572285" transform="translate(106,148)"/>
<path d="M0 0 C2.25 -0.25 2.25 -0.25 5 0 C7.125 1.8125 7.125 1.8125 9 4 C9.5775 4.5775 10.155 5.155 10.75 5.75 C11.1625 6.1625 11.575 6.575 12 7 C9.6875 7.1875 9.6875 7.1875 7 7 C5.4375 5.625 5.4375 5.625 4 4 C1.90010348 2.82425289 1.90010348 2.82425289 0 2 C0 1.34 0 0.68 0 0 Z " fill="#8529BF" transform="translate(195,48)"/>
<path d="M0 0 C1.32 0 2.64 0 4 0 C3.875 1.8125 3.875 1.8125 3 4 C0.0625 5.8125 0.0625 5.8125 -3 7 C-3.66 6.67 -4.32 6.34 -5 6 C-5 5.34 -5 4.68 -5 4 C-4.360625 3.71125 -3.72125 3.4225 -3.0625 3.125 C-0.84793921 2.17176549 -0.84793921 2.17176549 0 0 Z " fill="#66248A" transform="translate(151,201)"/>
<path d="M0 0 C3.19199167 2.41556126 5.74716687 4.68003538 8 8 C7.67 8.66 7.34 9.32 7 10 C4.625 9.3125 4.625 9.3125 2 8 C0.43061972 5.08543662 0 3.32058331 0 0 Z " fill="#653182" transform="translate(216,45)"/>
<path d="M0 0 C0.66 0 1.32 0 2 0 C2 0.66 2 1.32 2 2 C3.65 2.33 5.3 2.66 7 3 C7.33 4.32 7.66 5.64 8 7 C8.99 6.67 9.98 6.34 11 6 C11 6.66 11 7.32 11 8 C9.35 8 7.7 8 6 8 C6 6.68 6 5.36 6 4 C3.69 3.67 1.38 3.34 -1 3 C-0.67 2.01 -0.34 1.02 0 0 Z " fill="#4C18A0" transform="translate(206,216)"/>
<path d="M0 0 C5.15171623 -0.09038099 9.91913204 0.15318867 15 1 C15 1.33 15 1.66 15 2 C13.7625 2.144375 12.525 2.28875 11.25 2.4375 C8.43495501 2.78688502 5.7298503 3.20379366 3 4 C2.01 2.68 1.02 1.36 0 0 Z " fill="#5D10B5" transform="translate(117,213)"/>
<path d="M0 0 C0.33 0 0.66 0 1 0 C2.41722796 7.7160189 1.65647386 15.24350887 1 23 C0.67 23 0.34 23 0 23 C-0.1954384 20.10450497 -0.38161395 17.20891002 -0.5625 14.3125 C-0.61857422 13.49587891 -0.67464844 12.67925781 -0.73242188 11.83789062 C-0.98341571 7.70485877 -1.11127743 4.04175718 0 0 Z " fill="#5E2877" transform="translate(177,168)"/>
<path d="M0 0 C0.33 0 0.66 0 1 0 C1.08090971 1.62418745 1.13914995 3.24951745 1.1875 4.875 C1.22230469 5.77992188 1.25710937 6.68484375 1.29296875 7.6171875 C1.19628906 8.40351563 1.09960938 9.18984375 1 10 C0.01 10.66 -0.98 11.32 -2 12 C-2.28571429 3.42857143 -2.28571429 3.42857143 0 0 Z " fill="#5A2587" transform="translate(189,160)"/>
<path d="M0 0 C0.33 0.99 0.66 1.98 1 3 C-0.21484375 4.82421875 -0.21484375 4.82421875 -1.9375 6.6875 C-2.50339844 7.31011719 -3.06929687 7.93273437 -3.65234375 8.57421875 C-4.09707031 9.04472656 -4.54179687 9.51523438 -5 10 C-6.125 6.25 -6.125 6.25 -5 4 C-4.01 4 -3.02 4 -2 4 C-1.34 2.68 -0.68 1.36 0 0 Z " fill="#652792" transform="translate(222,111)"/>
<path d="M0 0 C1.70884005 1.62339805 3.37446717 3.29319053 5 5 C5 5.66 5 6.32 5 7 C7.31 7.66 9.62 8.32 12 9 C10.02 9.99 10.02 9.99 8 11 C1.52225519 5.92284866 1.52225519 5.92284866 0 4 C0 2.68 0 1.36 0 0 Z " fill="#542974" transform="translate(168,105)"/>
<path d="M0 0 C0.33 0 0.66 0 1 0 C1 3.63 1 7.26 1 11 C0.01 11 -0.98 11 -2 11 C-2.33 10.01 -2.66 9.02 -3 8 C-2.34 8 -1.68 8 -1 8 C-1.020625 6.865625 -1.04125 5.73125 -1.0625 4.5625 C-1 1 -1 1 0 0 Z " fill="#7E1BCC" transform="translate(227,88)"/>
<path d="M0 0 C0.66 0 1.32 0 2 0 C1.67 4.62 1.34 9.24 1 14 C0.34 14 -0.32 14 -1 14 C-1.02685938 11.85423363 -1.04633088 9.70837355 -1.0625 7.5625 C-1.07410156 6.36753906 -1.08570313 5.17257813 -1.09765625 3.94140625 C-1 1 -1 1 0 0 Z " fill="#581D7F" transform="translate(156,60)"/>
<path d="M0 0 C0.66 0.33 1.32 0.66 2 1 C2 1.66 2 2.32 2 3 C1.34 3 0.68 3 0 3 C-0.66 4.32 -1.32 5.64 -2 7 C-3.32 7 -4.64 7 -6 7 C-4.60667426 3.63279613 -3.0210714 2.0140476 0 0 Z " fill="#542475" transform="translate(206,137)"/>
<path d="M0 0 C0.33 1.32 0.66 2.64 1 4 C-3.455 4.495 -3.455 4.495 -8 5 C-8 4.01 -8 3.02 -8 2 C-2.25 0 -2.25 0 0 0 Z " fill="#822CB1" transform="translate(232,128)"/>
<path d="M0 0 C0.88751953 0.30744141 0.88751953 0.30744141 1.79296875 0.62109375 C5.83660816 1.9997571 9.76855249 3.31750847 14 4 C14 4.33 14 4.66 14 5 C12.41676312 5.027193 10.83338938 5.04648306 9.25 5.0625 C7.92742187 5.07990234 7.92742187 5.07990234 6.578125 5.09765625 C4.2181162 5.00826198 2.25501476 4.66912821 0 4 C0 2.68 0 1.36 0 0 Z " fill="#57179B" transform="translate(160,127)"/>
<path d="M0 0 C4 0 4 0 5.5 1.375 C5.995 1.91125 6.49 2.4475 7 3 C9.09989652 4.17574711 9.09989652 4.17574711 11 5 C9.02 5.99 9.02 5.99 7 7 C5.83040013 6.02433888 4.66438823 5.044375 3.5 4.0625 C2.8503125 3.51722656 2.200625 2.97195312 1.53125 2.41015625 C1.0259375 1.94480469 0.520625 1.47945312 0 1 C0 0.67 0 0.34 0 0 Z " fill="#44206D" transform="translate(89,216)"/>
<path d="M0 0 C0.33 0 0.66 0 1 0 C1.36205464 1.95689037 1.71441421 3.91557668 2.0625 5.875 C2.25972656 6.96554688 2.45695312 8.05609375 2.66015625 9.1796875 C3 12 3 12 2 14 C1.34 14 0.68 14 0 14 C0 9.38 0 4.76 0 0 Z " fill="#56277E" transform="translate(103,170)"/>
<path d="M0 0 C4.75481646 0.57634139 7.97048212 2.55068521 12 5 C11.01 5.495 11.01 5.495 10 6 C9.67 6.66 9.34 7.32 9 8 C7.87411986 7.04270084 6.7493285 6.08412105 5.625 5.125 C4.99851563 4.59132812 4.37203125 4.05765625 3.7265625 3.5078125 C2.44163349 2.38567993 1.20628025 1.20628025 0 0 Z " fill="#5E2978" transform="translate(148,152)"/>
<path d="M0 0 C0 3.53986194 -0.58152803 4.49515403 -3 7 C-4.32 7 -5.64 7 -7 7 C-5.54744301 3.17053157 -3.57104439 1.87949705 0 0 Z " fill="#6D2891" transform="translate(101,133)"/>
<path d="M0 0 C1.65 0.33 3.3 0.66 5 1 C0.375 5.875 0.375 5.875 -3 7 C-2.690625 6.401875 -2.38125 5.80375 -2.0625 5.1875 C-0.89790296 2.91043228 -0.89790296 2.91043228 0 0 Z " fill="#53228B" transform="translate(211,120)"/>
<path d="M0 0 C1.5625 1.6875 1.5625 1.6875 3 4 C2.8517636 7.03884627 2.42925609 8.50206293 0.4375 10.8125 C-0.036875 11.204375 -0.51125 11.59625 -1 12 C-1 10.02 -1 8.04 -1 6 C-0.34 6 0.32 6 1 6 C0.67 4.02 0.34 2.04 0 0 Z " fill="#5914AD" transform="translate(217,192)"/>
<path d="M0 0 C1.80125336 2.70188004 3.00243753 4.93057703 4 8 C3.67 8.99 3.34 9.98 3 11 C2.34 10.67 1.68 10.34 1 10 C1 9.01 1 8.02 1 7 C0.34 6.67 -0.32 6.34 -1 6 C-0.67 4.02 -0.34 2.04 0 0 Z " fill="#6A2185" transform="translate(285,157)"/>
<path d="M0 0 C-2.6598561 3.44216672 -5.90288286 3.99504674 -10 5 C-8.20177069 -0.39468792 -5.09771267 -0.22656501 0 0 Z " fill="#57277D" transform="translate(206,128)"/>
<path d="M0 0 C0.33 0 0.66 0 1 0 C1 1.65 1 3.3 1 5 C1.66 5 2.32 5 3 5 C3 7.31 3 9.62 3 12 C1.68 11.67 0.36 11.34 -1 11 C-0.67 7.37 -0.34 3.74 0 0 Z " fill="#6924A5" transform="translate(154,69)"/>
<path d="M0 0 C1.65 0.33 3.3 0.66 5 1 C2.03716687 3.38672669 -0.94270509 5.7353371 -4 8 C-4 6.68 -4 5.36 -4 4 C-2.68 3.67 -1.36 3.34 0 3 C0 2.01 0 1.02 0 0 Z " fill="#5A2A7D" transform="translate(162,52)"/>
<path d="M0 0 C3.41021743 0.78697325 6.68885166 1.87119943 10 3 C10 3.99 10 4.98 10 6 C6.7 5.01 3.4 4.02 0 3 C0 2.01 0 1.02 0 0 Z " fill="#63287E" transform="translate(192,49)"/>
<path d="M0 0 C0 1.65 0 3.3 0 5 C-2.4375 4.1875 -2.4375 4.1875 -5 3 C-5.33 2.01 -5.66 1.02 -6 0 C-2.25 -1.125 -2.25 -1.125 0 0 Z " fill="#8E20D5" transform="translate(209,50)"/>
<path d="M0 0 C-0.33 1.65 -0.66 3.3 -1 5 C-2.98 5.66 -4.96 6.32 -7 7 C-5.84933177 3.5479953 -4.01648928 0 0 0 Z " fill="#791DA2" transform="translate(270,199)"/>
<path d="M0 0 C0.33 0 0.66 0 1 0 C0.67 3.96 0.34 7.92 0 12 C-0.66 12 -1.32 12 -2 12 C-2 9.36 -2 6.72 -2 4 C-1.34 4 -0.68 4 0 4 C0 2.68 0 1.36 0 0 Z " fill="#641AAC" transform="translate(214,159)"/>
<path d="M0 0 C0.99 0.33 1.98 0.66 3 1 C4.0625 3.3125 4.0625 3.3125 5 6 C5.65213539 7.34050052 6.31379969 8.67661368 7 10 C4.5625 9.3125 4.5625 9.3125 2 8 C1.3125 5.5 1.3125 5.5 1 3 C0.34 2.34 -0.32 1.68 -1 1 C-0.67 0.67 -0.34 0.34 0 0 Z " fill="#762A9F" transform="translate(161,141)"/>
<path d="M0 0 C1.14926266 0.95421808 2.29430541 1.91352045 3.4375 2.875 C4.07558594 3.40867188 4.71367187 3.94234375 5.37109375 4.4921875 C7 6 7 6 8 8 C2.25 6.125 2.25 6.125 0 5 C0 3.35 0 1.7 0 0 Z " fill="#632886" transform="translate(269,137)"/>
<path d="M0 0 C0.66 0.33 1.32 0.66 2 1 C0.87895467 2.31587941 -0.24696965 3.62760353 -1.375 4.9375 C-2.00148438 5.66839844 -2.62796875 6.39929688 -3.2734375 7.15234375 C-5 9 -5 9 -7 10 C-5.6062718 5.56541027 -3.39417765 3.12621626 0 0 Z " fill="#513169" transform="translate(277,211)"/>
<path d="M0 0 C0.99 0.33 1.98 0.66 3 1 C1.70700306 3.88437779 0.34058637 5.87219421 -2 8 C-1.125 1.125 -1.125 1.125 0 0 Z " fill="#8223BA" transform="translate(278,184)"/>
<path d="M0 0 C2.31 0.33 4.62 0.66 7 1 C7 1.33 7 1.66 7 2 C3.04 2.99 -0.92 3.98 -5 5 C-5 4.34 -5 3.68 -5 3 C-3.35 2.67 -1.7 2.34 0 2 C0 1.34 0 0.68 0 0 Z " fill="#642D7F" transform="translate(228,145)"/>
<path d="M0 0 C5.75 1.625 5.75 1.625 8 5 C7.67 5.99 7.34 6.98 7 8 C7 7.34 7 6.68 7 6 C6.21625 5.690625 5.4325 5.38125 4.625 5.0625 C2 4 2 4 0 3 C0 2.01 0 1.02 0 0 Z " fill="#8C28BA" transform="translate(155,139)"/>
<path d="M0 0 C1 3 1 3 0.22265625 4.82421875 C-0.8515625 6.54947917 -1.92578125 8.27473958 -3 10 C-3.33 10 -3.66 10 -4 10 C-4.41176754 6.39703406 -4.1535853 5.21597933 -2 2.1875 C-1.34 1.465625 -0.68 0.74375 0 0 Z " fill="#5D2B7C" transform="translate(227,103)"/>
<path d="M0 0 C1.65 0.33 3.3 0.66 5 1 C4.67 1.99 4.34 2.98 4 4 C2.35 4 0.7 4 -1 4 C-0.67 2.68 -0.34 1.36 0 0 Z " fill="#9C24BA" transform="translate(280,156)"/>
<path d="M0 0 C4.875 4.625 4.875 4.625 6 8 C5.01 8 4.02 8 3 8 C2.67 6.68 2.34 5.36 2 4 C1.34 4 0.68 4 0 4 C0 2.68 0 1.36 0 0 Z " fill="#692B81" transform="translate(277,145)"/>
<path d="M0 0 C2.86724686 0.57344937 3.8614515 0.8614515 6 3 C5.625 5.125 5.625 5.125 5 7 C0 1.125 0 1.125 0 0 Z " fill="#472067" transform="translate(194,208)"/>
<path d="M0 0 C3 1 3 1 4.25 3.375 C5 6 5 6 4 9 C0 3.375 0 3.375 0 0 Z " fill="#492870" transform="translate(78,199)"/>
<path d="M0 0 C0.99 0 1.98 0 3 0 C3 2.31 3 4.62 3 7 C2.01 7.33 1.02 7.66 0 8 C0 5.36 0 2.72 0 0 Z " fill="#611C9D" transform="translate(104,187)"/>
<path d="M0 0 C-0.33 0.66 -0.66 1.32 -1 2 C-1.99 2 -2.98 2 -4 2 C-4 2.99 -4 3.98 -4 5 C-4.66 5 -5.32 5 -6 5 C-6 3.35 -6 1.7 -6 0 C-3 -1 -3 -1 0 0 Z " fill="#76279C" transform="translate(168,185)"/>
<path d="M0 0 C0.66 0.33 1.32 0.66 2 1 C1.67 3.64 1.34 6.28 1 9 C0.34 8.67 -0.32 8.34 -1 8 C-1.125 2.25 -1.125 2.25 0 0 Z " fill="#692390" transform="translate(103,154)"/>
<path d="M0 0 C0.99 0 1.98 0 3 0 C3 1.65 3 3.3 3 5 C2.34 5 1.68 5 1 5 C0.67 6.32 0.34 7.64 0 9 C0 6.03 0 3.06 0 0 Z " fill="#7227A9" transform="translate(229,84)"/>
<path d="M0 0 C1.32 0.33 2.64 0.66 4 1 C1.16569547 4.2542015 -0.68607774 5.5206753 -5 6 C-3.35 4.02 -1.7 2.04 0 0 Z " fill="#7D1CB7" transform="translate(152,41)"/>
<path d="M0 0 C2.475 0.495 2.475 0.495 5 1 C5.33 1.99 5.66 2.98 6 4 C4.35 3.67 2.7 3.34 1 3 C0.67 2.01 0.34 1.02 0 0 Z " fill="#5A12BD" transform="translate(223,210)"/>
<path d="M0 0 C2.475 0.495 2.475 0.495 5 1 C4.34 2.32 3.68 3.64 3 5 C2.01 4.34 1.02 3.68 0 3 C0 2.01 0 1.02 0 0 Z " fill="#5511BC" transform="translate(81,199)"/>
<path d="M0 0 C0.33 0 0.66 0 1 0 C1 2.64 1 5.28 1 8 C0.01 8.33 -0.98 8.66 -2 9 C-1.125 2.25 -1.125 2.25 0 0 Z " fill="#4C296A" transform="translate(77,160)"/>
<path d="M0 0 C0 0.66 0 1.32 0 2 C-0.99 2 -1.98 2 -3 2 C-3.33 2.99 -3.66 3.98 -4 5 C-5.65 5 -7.3 5 -9 5 C-2.87096774 0 -2.87096774 0 0 0 Z " fill="#592671" transform="translate(218,131)"/>
<path d="M0 0 C3.7952131 1.49097658 5.61042731 3.75700849 8 7 C7.67 7.66 7.34 8.32 7 9 C5.83037314 7.69013727 4.66437056 6.3770374 3.5 5.0625 C2.8503125 4.33160156 2.200625 3.60070312 1.53125 2.84765625 C0 1 0 1 0 0 Z " fill="#3E2466" transform="translate(135,110)"/>
<path d="M0 0 C4.875 1.875 4.875 1.875 6 3 C6.04080783 4.99958364 6.04254356 7.00045254 6 9 C3.59927045 6.11912454 1.52708963 3.43595166 0 0 Z " fill="#501B8F" transform="translate(138,111)"/>
<path d="M0 0 C2 3 2 3 3 6 C1.02 6.99 1.02 6.99 -1 8 C-1.125 2.25 -1.125 2.25 0 0 Z " fill="#50206F" transform="translate(162,92)"/>
<path d="M0 0 C3.0916909 2.52956528 3.90931332 5.22454612 5 9 C4.34 9 3.68 9 3 9 C0.56839395 5.63316085 0 4.26649636 0 0 Z " fill="#6D3484" transform="translate(224,55)"/>
<path d="M0 0 C0.99 0.66 1.98 1.32 3 2 C2.34 2.66 1.68 3.32 1 4 C0.28591666 5.98356483 -0.38617742 7.98315437 -1 10 C-2.46726798 6.18510326 -1.43336419 3.70988378 0 0 Z " fill="#7C22B6" transform="translate(281,198)"/>
<path d="M0 0 C1.32 0 2.64 0 4 0 C4 0.99 4 1.98 4 3 C4.99 3 5.98 3 7 3 C7 3.99 7 4.98 7 6 C6.34 6 5.68 6 5 6 C5 5.34 5 4.68 5 4 C4.360625 3.71125 3.72125 3.4225 3.0625 3.125 C1 2 1 2 0 0 Z " fill="#763983" transform="translate(265,156)"/>
<path d="M0 0 C3.35595828 0.59927826 5.37801226 1.84622436 8 4 C7.67 4.66 7.34 5.32 7 6 C6.34 6 5.68 6 5 6 C3.2856382 4.04072937 1.61594832 2.04119788 0 0 Z " fill="#8927B8" transform="translate(151,151)"/>
<path d="M0 0 C0.7425 0.45375 1.485 0.9075 2.25 1.375 C4.46930578 2.68640796 6.67967822 3.88280803 9 5 C6.36 4.67 3.72 4.34 1 4 C0.67 2.68 0.34 1.36 0 0 Z " fill="#551A97" transform="translate(171,112)"/>
<path d="M0 0 C0.66 0 1.32 0 2 0 C2.625 3.375 2.625 3.375 3 7 C2.34 7.66 1.68 8.32 1 9 C0.67 6.03 0.34 3.06 0 0 Z " fill="#61308C" transform="translate(159,87)"/>
<path d="M0 0 C0.66 0.33 1.32 0.66 2 1 C1.67 2.32 1.34 3.64 1 5 C0.01 5 -0.98 5 -2 5 C-2 3.68 -2 2.36 -2 1 C-1.34 0.67 -0.68 0.34 0 0 Z " fill="#7B15CC" transform="translate(154,55)"/>
<path d="M0 0 C2 1 2 1 2 1 Z " fill="#000000" transform="translate(124,208)"/>
<path d="" fill="#000000" transform="translate(0,0)"/>
</svg>
